<svg width="1581" height="910" viewBox="0 0 1581 910" fill="none" xmlns="http://www.w3.org/2000/svg">
<g id="&#228;&#184;&#187;&#230;&#142;&#165;&#231;&#186;&#191;&#229;&#155;&#190;">
<g id="Group 1707484067">
<g id="Frame 427319690">
<rect x="723.25" y="143.25" width="63.5" height="26.5" rx="2.75" fill="url(#paint0_linear_2002_253672)" fill-opacity="0.4"/>
<rect x="723.25" y="143.25" width="63.5" height="26.5" rx="2.75" stroke="url(#paint1_linear_2002_253672)" stroke-width="0.5"/>
<path id="0901" d="M744.998 156.144C744.998 158.117 744.656 159.616 743.974 160.64C743.302 161.664 742.336 162.176 741.078 162.176C739.83 162.176 738.864 161.664 738.182 160.64C737.51 159.616 737.174 158.117 737.174 156.144C737.174 154.16 737.51 152.656 738.182 151.632C738.864 150.597 739.83 150.08 741.078 150.08C742.336 150.08 743.302 150.592 743.974 151.616C744.656 152.64 744.998 154.149 744.998 156.144ZM738.998 156.144C738.998 157.637 739.168 158.757 739.51 159.504C739.851 160.24 740.374 160.608 741.078 160.608C741.792 160.608 742.315 160.24 742.646 159.504C742.987 158.768 743.158 157.648 743.158 156.144C743.158 154.629 742.987 153.504 742.646 152.768C742.315 152.021 741.792 151.648 741.078 151.648C740.374 151.648 739.851 152.021 739.51 152.768C739.168 153.504 738.998 154.629 738.998 156.144ZM750.279 150.08C751.025 150.08 751.692 150.245 752.279 150.576C752.876 150.896 753.34 151.349 753.671 151.936C754.012 152.523 754.183 153.195 754.183 153.952C754.183 154.528 754.076 155.072 753.863 155.584C753.649 156.085 753.287 156.747 752.775 157.568L750.071 161.984H748.167L750.535 158.176C750.737 157.856 750.903 157.616 751.031 157.456C750.753 157.552 750.412 157.6 750.007 157.6C749.303 157.6 748.673 157.44 748.119 157.12C747.564 156.789 747.132 156.347 746.823 155.792C746.524 155.227 746.375 154.592 746.375 153.888C746.375 153.163 746.545 152.512 746.887 151.936C747.228 151.349 747.697 150.896 748.295 150.576C748.892 150.245 749.553 150.08 750.279 150.08ZM750.295 156.08C750.924 156.08 751.425 155.872 751.799 155.456C752.183 155.04 752.375 154.501 752.375 153.84C752.375 153.179 752.183 152.645 751.799 152.24C751.425 151.835 750.924 151.632 750.295 151.632C749.665 151.632 749.159 151.84 748.775 152.256C748.401 152.661 748.215 153.189 748.215 153.84C748.215 154.512 748.401 155.056 748.775 155.472C749.159 155.877 749.665 156.08 750.295 156.08ZM763.56 156.144C763.56 158.117 763.219 159.616 762.536 160.64C761.864 161.664 760.899 162.176 759.64 162.176C758.392 162.176 757.427 161.664 756.744 160.64C756.072 159.616 755.736 158.117 755.736 156.144C755.736 154.16 756.072 152.656 756.744 151.632C757.427 150.597 758.392 150.08 759.64 150.08C760.899 150.08 761.864 150.592 762.536 151.616C763.219 152.64 763.56 154.149 763.56 156.144ZM757.56 156.144C757.56 157.637 757.731 158.757 758.072 159.504C758.413 160.24 758.936 160.608 759.64 160.608C760.355 160.608 760.877 160.24 761.208 159.504C761.549 158.768 761.72 157.648 761.72 156.144C761.72 154.629 761.549 153.504 761.208 152.768C760.877 152.021 760.355 151.648 759.64 151.648C758.936 151.648 758.413 152.021 758.072 152.768C757.731 153.504 757.56 154.629 757.56 156.144ZM765.801 153.984V152.272L769.273 150.272H770.601V162H768.857V152.256L765.801 153.984Z" fill="white"/>
</g>
<g id="Frame 427319691">
<rect x="189.25" y="488.25" width="63.5" height="26.5" rx="2.75" fill="url(#paint2_linear_2002_253672)" fill-opacity="0.4"/>
<rect x="189.25" y="488.25" width="63.5" height="26.5" rx="2.75" stroke="url(#paint3_linear_2002_253672)" stroke-width="0.5"/>
<path id="01397" d="M206.357 501.144C206.357 503.117 206.016 504.616 205.333 505.64C204.661 506.664 203.696 507.176 202.437 507.176C201.189 507.176 200.224 506.664 199.541 505.64C198.869 504.616 198.533 503.117 198.533 501.144C198.533 499.16 198.869 497.656 199.541 496.632C200.224 495.597 201.189 495.08 202.437 495.08C203.696 495.08 204.661 495.592 205.333 496.616C206.016 497.64 206.357 499.149 206.357 501.144ZM200.357 501.144C200.357 502.637 200.528 503.757 200.869 504.504C201.21 505.24 201.733 505.608 202.437 505.608C203.152 505.608 203.674 505.24 204.005 504.504C204.346 503.768 204.517 502.648 204.517 501.144C204.517 499.629 204.346 498.504 204.005 497.768C203.674 497.021 203.152 496.648 202.437 496.648C201.733 496.648 201.21 497.021 200.869 497.768C200.528 498.504 200.357 499.629 200.357 501.144ZM208.598 498.984V497.272L212.07 495.272H213.398V507H211.654V497.256L208.598 498.984ZM222.727 500.792C223.41 501.027 223.922 501.389 224.263 501.88C224.615 502.371 224.791 502.979 224.791 503.704C224.791 504.429 224.615 505.053 224.263 505.576C223.922 506.099 223.458 506.499 222.871 506.776C222.285 507.043 221.639 507.176 220.935 507.176C220.05 507.176 219.245 506.957 218.519 506.52C217.805 506.072 217.314 505.421 217.047 504.568L218.423 503.784C218.626 504.392 218.957 504.856 219.415 505.176C219.874 505.485 220.375 505.64 220.919 505.64C221.506 505.64 221.991 505.464 222.375 505.112C222.77 504.749 222.967 504.259 222.967 503.64C222.967 502.328 222.039 501.672 220.183 501.672H219.719V500.168H220.311C221.037 500.168 221.591 499.992 221.975 499.64C222.359 499.288 222.551 498.84 222.551 498.296C222.551 497.784 222.386 497.379 222.055 497.08C221.735 496.781 221.319 496.632 220.807 496.632C220.263 496.632 219.799 496.797 219.415 497.128C219.042 497.448 218.759 497.917 218.567 498.536L217.207 497.752C217.474 496.877 217.933 496.216 218.583 495.768C219.245 495.309 220.023 495.08 220.919 495.08C221.602 495.08 222.205 495.213 222.727 495.48C223.25 495.736 223.655 496.104 223.943 496.584C224.231 497.053 224.375 497.597 224.375 498.216C224.375 498.803 224.237 499.32 223.959 499.768C223.693 500.216 223.282 500.557 222.727 500.792ZM230.201 495.08C230.947 495.08 231.614 495.245 232.201 495.576C232.798 495.896 233.262 496.349 233.593 496.936C233.934 497.523 234.105 498.195 234.105 498.952C234.105 499.528 233.998 500.072 233.785 500.584C233.571 501.085 233.209 501.747 232.697 502.568L229.993 506.984H228.089L230.457 503.176C230.659 502.856 230.825 502.616 230.953 502.456C230.675 502.552 230.334 502.6 229.929 502.6C229.225 502.6 228.595 502.44 228.041 502.12C227.486 501.789 227.054 501.347 226.745 500.792C226.446 500.227 226.297 499.592 226.297 498.888C226.297 498.163 226.467 497.512 226.809 496.936C227.15 496.349 227.619 495.896 228.217 495.576C228.814 495.245 229.475 495.08 230.201 495.08ZM230.217 501.08C230.846 501.08 231.347 500.872 231.721 500.456C232.105 500.04 232.297 499.501 232.297 498.84C232.297 498.179 232.105 497.645 231.721 497.24C231.347 496.835 230.846 496.632 230.217 496.632C229.587 496.632 229.081 496.84 228.697 497.256C228.323 497.661 228.137 498.189 228.137 498.84C228.137 499.512 228.323 500.056 228.697 500.472C229.081 500.877 229.587 501.08 230.217 501.08ZM241.354 496.76H235.802V495.272H243.29V496.344L239.018 507H237.13L241.354 496.76Z" fill="white"/>
</g>
<g id="Frame 427319692">
<rect x="523.25" y="485.25" width="63.5" height="26.5" rx="2.75" fill="url(#paint4_linear_2002_253672)" fill-opacity="0.4"/>
<rect x="523.25" y="485.25" width="63.5" height="26.5" rx="2.75" stroke="url(#paint5_linear_2002_253672)" stroke-width="0.5"/>
<path id="01267" d="M540.357 498.144C540.357 500.117 540.016 501.616 539.333 502.64C538.661 503.664 537.696 504.176 536.437 504.176C535.189 504.176 534.224 503.664 533.541 502.64C532.869 501.616 532.533 500.117 532.533 498.144C532.533 496.16 532.869 494.656 533.541 493.632C534.224 492.597 535.189 492.08 536.437 492.08C537.696 492.08 538.661 492.592 539.333 493.616C540.016 494.64 540.357 496.149 540.357 498.144ZM534.357 498.144C534.357 499.637 534.528 500.757 534.869 501.504C535.21 502.24 535.733 502.608 536.437 502.608C537.152 502.608 537.674 502.24 538.005 501.504C538.346 500.768 538.517 499.648 538.517 498.144C538.517 496.629 538.346 495.504 538.005 494.768C537.674 494.021 537.152 493.648 536.437 493.648C535.733 493.648 535.21 494.021 534.869 494.768C534.528 495.504 534.357 496.629 534.357 498.144ZM542.598 495.984V494.272L546.07 492.272H547.398V504H545.654V494.256L542.598 495.984ZM553.719 502.48H558.823V504H551.159V502.896L554.855 498.752C555.527 498.005 555.991 497.419 556.247 496.992C556.514 496.555 556.647 496.085 556.647 495.584C556.647 494.965 556.482 494.491 556.151 494.16C555.821 493.819 555.394 493.648 554.871 493.648C554.338 493.648 553.863 493.829 553.447 494.192C553.042 494.555 552.749 495.051 552.567 495.68L551.191 494.896C551.437 494 551.911 493.307 552.615 492.816C553.33 492.325 554.125 492.08 554.999 492.08C555.661 492.08 556.253 492.219 556.775 492.496C557.309 492.763 557.725 493.157 558.023 493.68C558.322 494.192 558.471 494.8 558.471 495.504C558.471 496.197 558.301 496.848 557.959 497.456C557.629 498.064 557.037 498.832 556.183 499.76L553.719 502.48ZM564.665 496.656C565.369 496.656 565.993 496.821 566.537 497.152C567.091 497.472 567.523 497.915 567.833 498.48C568.142 499.045 568.297 499.675 568.297 500.368C568.297 501.093 568.126 501.749 567.785 502.336C567.443 502.912 566.974 503.365 566.377 503.696C565.779 504.016 565.118 504.176 564.393 504.176C563.646 504.176 562.974 504.016 562.377 503.696C561.79 503.365 561.326 502.907 560.985 502.32C560.654 501.733 560.489 501.061 560.489 500.304C560.489 499.728 560.595 499.184 560.809 498.672C561.022 498.16 561.379 497.499 561.881 496.688L564.601 492.272H566.505L564.137 496.08L563.641 496.8C563.918 496.704 564.259 496.656 564.665 496.656ZM564.377 502.624C565.006 502.624 565.507 502.421 565.881 502.016C566.265 501.6 566.457 501.067 566.457 500.416C566.457 499.744 566.265 499.205 565.881 498.8C565.507 498.384 565.006 498.176 564.377 498.176C563.747 498.176 563.241 498.384 562.857 498.8C562.483 499.216 562.297 499.755 562.297 500.416C562.297 501.077 562.483 501.611 562.857 502.016C563.241 502.421 563.747 502.624 564.377 502.624ZM575.354 493.76H569.802V492.272H577.29V493.344L573.018 504H571.13L575.354 493.76Z" fill="white"/>
</g>
<g id="Frame 427319694">
<rect x="960.25" y="387.25" width="63.5" height="26.5" rx="2.75" fill="url(#paint6_linear_2002_253672)" fill-opacity="0.4"/>
<rect x="960.25" y="387.25" width="63.5" height="26.5" rx="2.75" stroke="url(#paint7_linear_2002_253672)" stroke-width="0.5"/>
<path id="0902" d="M981.998 400.144C981.998 402.117 981.656 403.616 980.974 404.64C980.302 405.664 979.336 406.176 978.078 406.176C976.83 406.176 975.864 405.664 975.182 404.64C974.51 403.616 974.174 402.117 974.174 400.144C974.174 398.16 974.51 396.656 975.182 395.632C975.864 394.597 976.83 394.08 978.078 394.08C979.336 394.08 980.302 394.592 980.974 395.616C981.656 396.64 981.998 398.149 981.998 400.144ZM975.998 400.144C975.998 401.637 976.168 402.757 976.51 403.504C976.851 404.24 977.374 404.608 978.078 404.608C978.792 404.608 979.315 404.24 979.646 403.504C979.987 402.768 980.158 401.648 980.158 400.144C980.158 398.629 979.987 397.504 979.646 396.768C979.315 396.021 978.792 395.648 978.078 395.648C977.374 395.648 976.851 396.021 976.51 396.768C976.168 397.504 975.998 398.629 975.998 400.144ZM987.279 394.08C988.025 394.08 988.692 394.245 989.279 394.576C989.876 394.896 990.34 395.349 990.671 395.936C991.012 396.523 991.183 397.195 991.183 397.952C991.183 398.528 991.076 399.072 990.863 399.584C990.649 400.085 990.287 400.747 989.775 401.568L987.071 405.984H985.167L987.535 402.176C987.737 401.856 987.903 401.616 988.031 401.456C987.753 401.552 987.412 401.6 987.007 401.6C986.303 401.6 985.673 401.44 985.119 401.12C984.564 400.789 984.132 400.347 983.823 399.792C983.524 399.227 983.375 398.592 983.375 397.888C983.375 397.163 983.545 396.512 983.887 395.936C984.228 395.349 984.697 394.896 985.295 394.576C985.892 394.245 986.553 394.08 987.279 394.08ZM987.295 400.08C987.924 400.08 988.425 399.872 988.799 399.456C989.183 399.04 989.375 398.501 989.375 397.84C989.375 397.179 989.183 396.645 988.799 396.24C988.425 395.835 987.924 395.632 987.295 395.632C986.665 395.632 986.159 395.84 985.775 396.256C985.401 396.661 985.215 397.189 985.215 397.84C985.215 398.512 985.401 399.056 985.775 399.472C986.159 399.877 986.665 400.08 987.295 400.08ZM1000.56 400.144C1000.56 402.117 1000.22 403.616 999.536 404.64C998.864 405.664 997.899 406.176 996.64 406.176C995.392 406.176 994.427 405.664 993.744 404.64C993.072 403.616 992.736 402.117 992.736 400.144C992.736 398.16 993.072 396.656 993.744 395.632C994.427 394.597 995.392 394.08 996.64 394.08C997.899 394.08 998.864 394.592 999.536 395.616C1000.22 396.64 1000.56 398.149 1000.56 400.144ZM994.56 400.144C994.56 401.637 994.731 402.757 995.072 403.504C995.413 404.24 995.936 404.608 996.64 404.608C997.355 404.608 997.877 404.24 998.208 403.504C998.549 402.768 998.72 401.648 998.72 400.144C998.72 398.629 998.549 397.504 998.208 396.768C997.877 396.021 997.355 395.648 996.64 395.648C995.936 395.648 995.413 396.021 995.072 396.768C994.731 397.504 994.56 398.629 994.56 400.144ZM1004.64 404.48H1009.75V406H1002.08V404.896L1005.78 400.752C1006.45 400.005 1006.91 399.419 1007.17 398.992C1007.44 398.555 1007.57 398.085 1007.57 397.584C1007.57 396.965 1007.4 396.491 1007.07 396.16C1006.74 395.819 1006.32 395.648 1005.79 395.648C1005.26 395.648 1004.79 395.829 1004.37 396.192C1003.96 396.555 1003.67 397.051 1003.49 397.68L1002.11 396.896C1002.36 396 1002.83 395.307 1003.54 394.816C1004.25 394.325 1005.05 394.08 1005.92 394.08C1006.58 394.08 1007.17 394.219 1007.7 394.496C1008.23 394.763 1008.65 395.157 1008.95 395.68C1009.24 396.192 1009.39 396.8 1009.39 397.504C1009.39 398.197 1009.22 398.848 1008.88 399.456C1008.55 400.064 1007.96 400.832 1007.11 401.76L1004.64 404.48Z" fill="white"/>
</g>
<g id="Frame 427319696">
<rect x="1300.25" y="308.25" width="39.5" height="26.5" rx="2.75" fill="url(#paint8_linear_2002_253672)" fill-opacity="0.4"/>
<rect x="1300.25" y="308.25" width="39.5" height="26.5" rx="2.75" stroke="url(#paint9_linear_2002_253672)" stroke-width="0.5"/>
<path id="011" d="M1314.64 321.144C1314.64 323.117 1314.3 324.616 1313.61 325.64C1312.94 326.664 1311.98 327.176 1310.72 327.176C1309.47 327.176 1308.5 326.664 1307.82 325.64C1307.15 324.616 1306.81 323.117 1306.81 321.144C1306.81 319.16 1307.15 317.656 1307.82 316.632C1308.5 315.597 1309.47 315.08 1310.72 315.08C1311.98 315.08 1312.94 315.592 1313.61 316.616C1314.3 317.64 1314.64 319.149 1314.64 321.144ZM1308.64 321.144C1308.64 322.637 1308.81 323.757 1309.15 324.504C1309.49 325.24 1310.01 325.608 1310.72 325.608C1311.43 325.608 1311.96 325.24 1312.29 324.504C1312.63 323.768 1312.8 322.648 1312.8 321.144C1312.8 319.629 1312.63 318.504 1312.29 317.768C1311.96 317.021 1311.43 316.648 1310.72 316.648C1310.01 316.648 1309.49 317.021 1309.15 317.768C1308.81 318.504 1308.64 319.629 1308.64 321.144ZM1316.88 318.984V317.272L1320.35 315.272H1321.68V327H1319.94V317.256L1316.88 318.984ZM1326.16 318.984V317.272L1329.63 315.272H1330.96V327H1329.22V317.256L1326.16 318.984Z" fill="white"/>
</g>
<g id="Frame 427319698">
<rect x="1400.25" y="164.25" width="39.5" height="26.5" rx="2.75" fill="url(#paint10_linear_2002_253672)" fill-opacity="0.4"/>
<rect x="1400.25" y="164.25" width="39.5" height="26.5" rx="2.75" stroke="url(#paint11_linear_2002_253672)" stroke-width="0.5"/>
<path id="010" d="M1414.64 177.144C1414.64 179.117 1414.3 180.616 1413.61 181.64C1412.94 182.664 1411.98 183.176 1410.72 183.176C1409.47 183.176 1408.5 182.664 1407.82 181.64C1407.15 180.616 1406.81 179.117 1406.81 177.144C1406.81 175.16 1407.15 173.656 1407.82 172.632C1408.5 171.597 1409.47 171.08 1410.72 171.08C1411.98 171.08 1412.94 171.592 1413.61 172.616C1414.3 173.64 1414.64 175.149 1414.64 177.144ZM1408.64 177.144C1408.64 178.637 1408.81 179.757 1409.15 180.504C1409.49 181.24 1410.01 181.608 1410.72 181.608C1411.43 181.608 1411.96 181.24 1412.29 180.504C1412.63 179.768 1412.8 178.648 1412.8 177.144C1412.8 175.629 1412.63 174.504 1412.29 173.768C1411.96 173.021 1411.43 172.648 1410.72 172.648C1410.01 172.648 1409.49 173.021 1409.15 173.768C1408.81 174.504 1408.64 175.629 1408.64 177.144ZM1416.88 174.984V173.272L1420.35 171.272H1421.68V183H1419.94V173.256L1416.88 174.984ZM1433.2 177.144C1433.2 179.117 1432.86 180.616 1432.18 181.64C1431.5 182.664 1430.54 183.176 1429.28 183.176C1428.03 183.176 1427.07 182.664 1426.38 181.64C1425.71 180.616 1425.38 179.117 1425.38 177.144C1425.38 175.16 1425.71 173.656 1426.38 172.632C1427.07 171.597 1428.03 171.08 1429.28 171.08C1430.54 171.08 1431.5 171.592 1432.18 172.616C1432.86 173.64 1433.2 175.149 1433.2 177.144ZM1427.2 177.144C1427.2 178.637 1427.37 179.757 1427.71 180.504C1428.05 181.24 1428.58 181.608 1429.28 181.608C1430 181.608 1430.52 181.24 1430.85 180.504C1431.19 179.768 1431.36 178.648 1431.36 177.144C1431.36 175.629 1431.19 174.504 1430.85 173.768C1430.52 173.021 1430 172.648 1429.28 172.648C1428.58 172.648 1428.05 173.021 1427.71 173.768C1427.37 174.504 1427.2 175.629 1427.2 177.144Z" fill="white"/>
</g>
<g id="Frame 427319699">
<rect x="113.25" y="308.25" width="39.5" height="26.5" rx="2.75" fill="url(#paint12_linear_2002_253672)" fill-opacity="0.4"/>
<rect x="113.25" y="308.25" width="39.5" height="26.5" rx="2.75" stroke="url(#paint13_linear_2002_253672)" stroke-width="0.5"/>
<path id="013" d="M127.638 321.144C127.638 323.117 127.297 324.616 126.614 325.64C125.942 326.664 124.977 327.176 123.718 327.176C122.47 327.176 121.505 326.664 120.822 325.64C120.15 324.616 119.814 323.117 119.814 321.144C119.814 319.16 120.15 317.656 120.822 316.632C121.505 315.597 122.47 315.08 123.718 315.08C124.977 315.08 125.942 315.592 126.614 316.616C127.297 317.64 127.638 319.149 127.638 321.144ZM121.638 321.144C121.638 322.637 121.809 323.757 122.15 324.504C122.491 325.24 123.014 325.608 123.718 325.608C124.433 325.608 124.955 325.24 125.286 324.504C125.627 323.768 125.798 322.648 125.798 321.144C125.798 319.629 125.627 318.504 125.286 317.768C124.955 317.021 124.433 316.648 123.718 316.648C123.014 316.648 122.491 317.021 122.15 317.768C121.809 318.504 121.638 319.629 121.638 321.144ZM129.879 318.984V317.272L133.351 315.272H134.679V327H132.935V317.256L129.879 318.984ZM144.009 320.792C144.691 321.027 145.203 321.389 145.545 321.88C145.897 322.371 146.073 322.979 146.073 323.704C146.073 324.429 145.897 325.053 145.545 325.576C145.203 326.099 144.739 326.499 144.153 326.776C143.566 327.043 142.921 327.176 142.217 327.176C141.331 327.176 140.526 326.957 139.801 326.52C139.086 326.072 138.595 325.421 138.329 324.568L139.705 323.784C139.907 324.392 140.238 324.856 140.697 325.176C141.155 325.485 141.657 325.64 142.201 325.64C142.787 325.64 143.273 325.464 143.657 325.112C144.051 324.749 144.249 324.259 144.249 323.64C144.249 322.328 143.321 321.672 141.465 321.672H141.001V320.168H141.593C142.318 320.168 142.873 319.992 143.257 319.64C143.641 319.288 143.833 318.84 143.833 318.296C143.833 317.784 143.667 317.379 143.337 317.08C143.017 316.781 142.601 316.632 142.089 316.632C141.545 316.632 141.081 316.797 140.697 317.128C140.323 317.448 140.041 317.917 139.849 318.536L138.489 317.752C138.755 316.877 139.214 316.216 139.865 315.768C140.526 315.309 141.305 315.08 142.201 315.08C142.883 315.08 143.486 315.213 144.009 315.48C144.531 315.736 144.937 316.104 145.225 316.584C145.513 317.053 145.657 317.597 145.657 318.216C145.657 318.803 145.518 319.32 145.241 319.768C144.974 320.216 144.563 320.557 144.009 320.792Z" fill="white"/>
</g>
<g id="Frame 427319697">
<rect x="1386.25" y="487.25" width="63.5" height="26.5" rx="2.75" fill="url(#paint14_linear_2002_253672)" fill-opacity="0.4"/>
<rect x="1386.25" y="487.25" width="63.5" height="26.5" rx="2.75" stroke="url(#paint15_linear_2002_253672)" stroke-width="0.5"/>
<path id="01167" d="M1403.36 500.144C1403.36 502.117 1403.02 503.616 1402.33 504.64C1401.66 505.664 1400.7 506.176 1399.44 506.176C1398.19 506.176 1397.22 505.664 1396.54 504.64C1395.87 503.616 1395.53 502.117 1395.53 500.144C1395.53 498.16 1395.87 496.656 1396.54 495.632C1397.22 494.597 1398.19 494.08 1399.44 494.08C1400.7 494.08 1401.66 494.592 1402.33 495.616C1403.02 496.64 1403.36 498.149 1403.36 500.144ZM1397.36 500.144C1397.36 501.637 1397.53 502.757 1397.87 503.504C1398.21 504.24 1398.73 504.608 1399.44 504.608C1400.15 504.608 1400.67 504.24 1401 503.504C1401.35 502.768 1401.52 501.648 1401.52 500.144C1401.52 498.629 1401.35 497.504 1401 496.768C1400.67 496.021 1400.15 495.648 1399.44 495.648C1398.73 495.648 1398.21 496.021 1397.87 496.768C1397.53 497.504 1397.36 498.629 1397.36 500.144ZM1405.6 497.984V496.272L1409.07 494.272H1410.4V506H1408.65V496.256L1405.6 497.984ZM1414.88 497.984V496.272L1418.35 494.272H1419.68V506H1417.94V496.256L1414.88 497.984ZM1427.66 498.656C1428.37 498.656 1428.99 498.821 1429.54 499.152C1430.09 499.472 1430.52 499.915 1430.83 500.48C1431.14 501.045 1431.3 501.675 1431.3 502.368C1431.3 503.093 1431.13 503.749 1430.78 504.336C1430.44 504.912 1429.97 505.365 1429.38 505.696C1428.78 506.016 1428.12 506.176 1427.39 506.176C1426.65 506.176 1425.97 506.016 1425.38 505.696C1424.79 505.365 1424.33 504.907 1423.98 504.32C1423.65 503.733 1423.49 503.061 1423.49 502.304C1423.49 501.728 1423.6 501.184 1423.81 500.672C1424.02 500.16 1424.38 499.499 1424.88 498.688L1427.6 494.272H1429.5L1427.14 498.08L1426.64 498.8C1426.92 498.704 1427.26 498.656 1427.66 498.656ZM1427.38 504.624C1428.01 504.624 1428.51 504.421 1428.88 504.016C1429.26 503.6 1429.46 503.067 1429.46 502.416C1429.46 501.744 1429.26 501.205 1428.88 500.8C1428.51 500.384 1428.01 500.176 1427.38 500.176C1426.75 500.176 1426.24 500.384 1425.86 500.8C1425.48 501.216 1425.3 501.755 1425.3 502.416C1425.3 503.077 1425.48 503.611 1425.86 504.016C1426.24 504.421 1426.75 504.624 1427.38 504.624ZM1438.35 495.76H1432.8V494.272H1440.29V495.344L1436.02 506H1434.13L1438.35 495.76Z" fill="white"/>
</g>
<g id="Frame 427319695">
<rect x="924.25" y="202.25" width="95.5" height="26.5" rx="2.75" fill="url(#paint16_linear_2002_253672)" fill-opacity="0.4"/>
<rect x="924.25" y="202.25" width="95.5" height="26.5" rx="2.75" stroke="url(#paint17_linear_2002_253672)" stroke-width="0.5"/>
<path id="10kV 1B&#230;&#174;&#181;" d="M935.215 212.984V211.272L938.687 209.272H940.015V221H938.271V211.256L935.215 212.984ZM951.537 215.144C951.537 217.117 951.195 218.616 950.513 219.64C949.841 220.664 948.875 221.176 947.617 221.176C946.369 221.176 945.403 220.664 944.721 219.64C944.049 218.616 943.713 217.117 943.713 215.144C943.713 213.16 944.049 211.656 944.721 210.632C945.403 209.597 946.369 209.08 947.617 209.08C948.875 209.08 949.841 209.592 950.513 210.616C951.195 211.64 951.537 213.149 951.537 215.144ZM945.537 215.144C945.537 216.637 945.707 217.757 946.049 218.504C946.39 219.24 946.913 219.608 947.617 219.608C948.331 219.608 948.854 219.24 949.185 218.504C949.526 217.768 949.697 216.648 949.697 215.144C949.697 213.629 949.526 212.504 949.185 211.768C948.854 211.021 948.331 210.648 947.617 210.648C946.913 210.648 946.39 211.021 946.049 211.768C945.707 212.504 945.537 213.629 945.537 215.144ZM957.57 216.104L960.978 221H958.962L956.45 217.352L955.074 218.888V221H953.426V208.824H955.074V216.824L958.658 212.696H960.626L957.57 216.104ZM961.993 209.288L965.529 218.648L968.905 209.288H970.681L966.201 221H964.745L960.073 209.288H961.993ZM975.981 212.984V211.272L979.453 209.272H980.781V221H979.037V211.256L975.981 212.984ZM991.614 214.872C993.022 215.309 993.726 216.243 993.726 217.672C993.726 218.728 993.358 219.549 992.622 220.136C991.886 220.712 990.825 221 989.438 221H985.086V209.288H988.958C990.206 209.288 991.204 209.576 991.95 210.152C992.697 210.717 993.07 211.496 993.07 212.488C993.07 213.587 992.585 214.381 991.614 214.872ZM986.782 210.792V214.296H988.718C989.518 214.296 990.142 214.136 990.59 213.816C991.038 213.496 991.262 213.064 991.262 212.52C991.262 211.976 991.038 211.555 990.59 211.256C990.142 210.947 989.518 210.792 988.718 210.792H986.782ZM989.198 219.496C990.105 219.496 990.782 219.336 991.23 219.016C991.689 218.685 991.918 218.221 991.918 217.624C991.918 217.027 991.689 216.563 991.23 216.232C990.782 215.891 990.105 215.72 989.198 215.72H986.782V219.496H989.198ZM1001.52 218.952C1000.13 219.133 998.859 219.304 997.697 219.464V222.2H996.353V219.64L995.073 219.816L995.025 218.36L996.353 218.216V208.52C997.131 208.467 997.995 208.365 998.945 208.216C999.894 208.056 1000.69 207.885 1001.33 207.704L1001.71 209.096C1001.24 209.224 1000.61 209.352 999.825 209.48C999.046 209.608 998.337 209.709 997.697 209.784V211.464H1001.04V212.824H997.697V214.6H1001.04V215.96H997.697V218.04C998.571 217.933 999.846 217.763 1001.52 217.528V218.952ZM1001.26 212.936C1001.68 212.595 1001.98 212.296 1002.18 212.04C1002.38 211.784 1002.52 211.507 1002.59 211.208C1002.67 210.909 1002.7 210.515 1002.7 210.024V208.248H1007.73V211.16C1007.73 211.459 1007.77 211.656 1007.86 211.752C1007.95 211.837 1008.14 211.891 1008.43 211.912L1009.02 211.928L1009.6 211.912L1009.34 213.256L1008.64 213.272L1007.94 213.256C1007.39 213.235 1007 213.117 1006.75 212.904C1006.51 212.691 1006.38 212.317 1006.38 211.784V209.592H1004.05V210.472C1004.05 211.155 1003.92 211.741 1003.66 212.232C1003.42 212.712 1002.96 213.24 1002.29 213.816L1001.26 212.936ZM1009.07 222.264C1007.54 221.635 1006.24 220.867 1005.18 219.96C1004.13 220.813 1002.76 221.592 1001.07 222.296L1000.34 220.888C1001.88 220.291 1003.15 219.64 1004.14 218.936C1003.28 217.955 1002.57 216.787 1002.02 215.432H1001.62V214.136H1008.59V215.48C1007.97 216.92 1007.18 218.115 1006.21 219.064C1007.13 219.757 1008.31 220.344 1009.76 220.824L1009.07 222.264ZM1003.54 215.432C1003.96 216.488 1004.51 217.384 1005.17 218.12C1005.96 217.363 1006.59 216.467 1007.07 215.432H1003.54Z" fill="white"/>
</g>
</g>
<g id="Group 1707484282">
<g id="223">
<g id="Group 1707483833">
<g id="Group 1707483830">
<g id="Group 1707483762">
<g id="Group 1707480031">
<rect id="Rectangle 1859" y="241" width="745.957" height="14" fill="#9ED0F4" fill-opacity="0.1"/>
<line id="Line 301" x1="2.76404" y1="248" x2="745.958" y2="248" stroke="#9ED0F4" stroke-width="4"/>
</g>
<g id="Group 1707483762_2">
<rect id="Rectangle 1859_2" x="845" y="241" width="735.999" height="14" fill="#9ED0F4" fill-opacity="0.1"/>
<line id="Line 301_2" x1="847.727" y1="248" x2="1581" y2="248" stroke="#9ED0F4" stroke-width="4"/>
</g>
<g id="Group 1707483765">
<g id="Group 1707480044">
<g id="Group 1707479804">
<line id="Line 301_3" x1="1371" y1="246.967" x2="1371" y2="214" stroke="#9ED0F4" stroke-width="3"/>
</g>
<g id="Group 1707480006">
<line id="Line 301_4" y1="-1.5" x2="140" y2="-1.5" transform="matrix(-4.38272e-08 -1 -1 4.35959e-08 1369 140)" stroke="#9ED0F4" stroke-width="3"/>
</g>
<g id="Group 1707480008">
<g id="Group 1707480002">
<rect id="Rectangle 346241066" x="1361" y="159" width="20" height="35" rx="2" fill="#9ED0F4"/>
<path id="Vector 147" d="M1372.5 158C1372.5 157.172 1371.83 156.5 1371 156.5C1370.17 156.5 1369.5 157.172 1369.5 158L1372.5 158ZM1369.5 158L1369.5 161L1372.5 161L1372.5 158L1369.5 158Z" fill="#9ED0F4"/>
<path id="Vector 149" d="M1372.5 196C1372.5 196.828 1371.83 197.5 1371 197.5C1370.17 197.5 1369.5 196.828 1369.5 196L1372.5 196ZM1369.5 196L1369.5 193L1372.5 193L1372.5 196L1369.5 196Z" fill="#9ED0F4"/>
<g id="Group 1707484060">
<path id="Vector 144" d="M1369.5 154.016C1369.51 154.845 1370.19 155.509 1371.02 155.5C1371.84 155.491 1372.51 154.812 1372.5 153.984L1369.5 154.016ZM1369.36 141.016L1369.5 154.016L1372.5 153.984L1372.36 140.983L1369.36 141.016Z" fill="#9ED0F4"/>
<path id="Vector 145" d="M1363.71 148.363L1371 140L1378 148.363" stroke="#9ED0F4" stroke-width="3" stroke-linecap="round"/>
</g>
<g id="Group 1707484062">
<path id="Vector 144_2" d="M1369.5 199.984C1369.51 199.155 1370.19 198.491 1371.02 198.5C1371.84 198.509 1372.51 199.188 1372.5 200.016L1369.5 199.984ZM1369.36 212.984L1369.5 199.984L1372.5 200.016L1372.36 213.017L1369.36 212.984Z" fill="#9ED0F4"/>
<path id="Vector 145_2" d="M1363.71 205.637L1371 214L1378 205.637" stroke="#9ED0F4" stroke-width="3" stroke-linecap="round"/>
</g>
</g>
</g>
<g id="Group 1707483748">
<g id="Group 1707483749">
<path id="Vector 3711" d="M1507.5 88.4226V56.9995H1372" stroke="#9ED0F4" stroke-width="2"/>
<g id="Group 1707480015">
<path id="Vector 3713" d="M1462.5 92.9995L1462.5 101" stroke="#9ED0F4" stroke-width="2"/>
<path id="Vector 3715" d="M1462.5 57.9995L1462.5 87.9995" stroke="#9ED0F4" stroke-width="2"/>
<path id="Vector 3714" d="M1462.5 115L1462.5 127.5" stroke="#9ED0F4" stroke-width="2"/>
<g id="Group 1707480011">
<path id="Vector 3713_2" d="M1455.5 128L1469.5 128" stroke="#9ED0F4" stroke-width="2"/>
<path id="Vector 3714_2" d="M1458.5 132H1466.5" stroke="#9ED0F4" stroke-width="2"/>
<path id="Vector 3715_2" d="M1460.5 136H1464.5" stroke="#9ED0F4" stroke-width="2"/>
</g>
<g id="Group 1707480009">
<path id="Vector 3713_3" d="M1455.5 88.9995L1469.5 88.9995" stroke="#9ED0F4" stroke-width="2"/>
<path id="Vector 3714_3" d="M1455.5 91.9995L1469.5 91.9836" stroke="#9ED0F4" stroke-width="2"/>
</g>
<g id="Group 1707480010">
<circle id="Ellipse 3917" cx="7" cy="7" r="6.25" transform="matrix(-1 0 0 1 1469.5 101)" stroke="#9ED0F4" stroke-width="1.5"/>
<path id="Vector 3716" d="M1466.88 103.625L1458.12 112.375" stroke="#9ED0F4" stroke-width="1.5"/>
<path id="Vector 3717" d="M1458.56 103.625L1466.44 112.375" stroke="#9ED0F4" stroke-width="1.5"/>
</g>
</g>
<g id="Group 1707483722">
<g id="Group 1707480054">
<g id="Group 1707480012">
<rect id="Rectangle 4811" x="-0.75" y="0.75" width="10.5" height="23.5" transform="matrix(-1 0 0 1 1512 87.9995)" stroke="#9ED0F4" stroke-width="1.5"/>
</g>
<g id="Group 1707480013">
<path id="Vector 3712" d="M1507.5 113V127" stroke="#9ED0F4" stroke-width="2"/>
<g id="Group 1707480008_2">
<path id="Vector 3713_4" d="M1500.5 128L1514.5 128" stroke="#9ED0F4" stroke-width="2"/>
<path id="Vector 3714_4" d="M1503.5 132H1511.5" stroke="#9ED0F4" stroke-width="2"/>
<path id="Vector 3715_3" d="M1505.5 136H1509.5" stroke="#9ED0F4" stroke-width="2"/>
</g>
</g>
</g>
<g id="Group 1707483718">
<path id="Polygon 337" d="M1507.5 106L1512 100H1503L1507.5 106Z" fill="#9ED0F4"/>
<rect id="Rectangle 346240928" width="2" height="14" transform="matrix(-1 0 0 1 1508.5 88.9995)" fill="#9ED0F4"/>
</g>
</g>
</g>
</g>
</g>
</g>
<g id="Group 1707483760">
<g id="Group 1707483722_2">
<circle id="Ellipse 13812" cx="94.5" cy="879.5" r="3.5" stroke="white" stroke-width="2"/>
<circle id="Ellipse 13814" cx="59.5" cy="902.5" r="3.5" stroke="white" stroke-width="2"/>
<g id="Group 1707483721">
<g id="Group 1707480044_2">
<g id="Group 1707479804_2">
<path id="Line 301_5" d="M96 250L96 285" stroke="#9ED0F4" stroke-width="3"/>
</g>
<g id="Group 1707480006_2">
<path id="Line 301_6" d="M95.9999 355.5L96 646" stroke="#9ED0F4" stroke-width="3"/>
</g>
<g id="Group 1707480007">
<g id="Group 1707480002_2">
<rect id="Rectangle 346241066_2" x="86" y="304" width="20" height="35" rx="2" fill="#9ED0F4"/>
<path id="Vector 147_2" d="M97.5 303C97.5 302.172 96.8284 301.5 96 301.5C95.1716 301.5 94.5 302.172 94.5 303L97.5 303ZM94.5 303L94.5 306L97.5 306L97.5 303L94.5 303Z" fill="#9ED0F4"/>
<path id="Vector 149_2" d="M97.5 341C97.5 341.828 96.8284 342.5 96 342.5C95.1716 342.5 94.5 341.828 94.5 341L97.5 341ZM94.5 341L94.5 338L97.5 338L97.5 341L94.5 341Z" fill="#9ED0F4"/>
<g id="Group 1707484060_2">
<path id="Vector 144_3" d="M94.5001 299.016C94.5092 299.845 95.1881 300.509 96.0165 300.5C96.8449 300.491 97.509 299.812 97.4999 298.984L94.5001 299.016ZM94.3571 286.016L94.5001 299.016L97.4999 298.984L97.357 285.983L94.3571 286.016Z" fill="#9ED0F4"/>
<path id="Vector 145_3" d="M88.7142 293.363L96 285L103 293.363" stroke="#9ED0F4" stroke-width="3" stroke-linecap="round"/>
</g>
<g id="Group 1707484062_2">
<path id="Vector 144_4" d="M94.5001 344.984C94.5092 344.155 95.1881 343.491 96.0165 343.5C96.8449 343.509 97.509 344.188 97.4999 345.016L94.5001 344.984ZM94.3571 357.984L94.5001 344.984L97.4999 345.016L97.357 358.017L94.3571 357.984Z" fill="#9ED0F4"/>
<path id="Vector 145_4" d="M88.7142 350.637L96 359L103 350.637" stroke="#9ED0F4" stroke-width="3" stroke-linecap="round"/>
</g>
</g>
</g>
<circle id="Ellipse 3915" cx="96" cy="511" r="9" stroke="#9ED0F4" stroke-width="2"/>
</g>
<g id="Group 1707483748_2">
<g id="Group 1707480016">
<path id="Vector 3711_2" d="M15 479.423V448H175V484" stroke="#9ED0F4" stroke-width="2"/>
<g id="Group 1707480015_2">
<path id="Vector 3713_5" d="M58 484L58 492" stroke="#9ED0F4" stroke-width="2"/>
<path id="Vector 3715_4" d="M58 449L58 479" stroke="#9ED0F4" stroke-width="2"/>
<path id="Vector 3714_5" d="M58 506L58 518.5" stroke="#9ED0F4" stroke-width="2"/>
<g id="Group 1707480011_2">
<path id="Vector 3713_6" d="M65 519L51 519" stroke="#9ED0F4" stroke-width="2"/>
<path id="Vector 3714_6" d="M62 523H54" stroke="#9ED0F4" stroke-width="2"/>
<path id="Vector 3715_5" d="M60 527H56" stroke="#9ED0F4" stroke-width="2"/>
</g>
<g id="Group 1707480009_2">
<path id="Vector 3713_7" d="M65 480L51 480" stroke="#9ED0F4" stroke-width="2"/>
<path id="Vector 3714_7" d="M65 483L51 482.984" stroke="#9ED0F4" stroke-width="2"/>
</g>
<g id="Group 1707480010_2">
<circle id="Ellipse 3917_2" cx="58" cy="499" r="6.25" stroke="#9ED0F4" stroke-width="1.5"/>
<path id="Vector 3716_2" d="M53.625 494.625L62.375 503.375" stroke="#9ED0F4" stroke-width="1.5"/>
<path id="Vector 3717_2" d="M61.9375 494.625L54.0625 503.375" stroke="#9ED0F4" stroke-width="1.5"/>
</g>
</g>
</g>
<g id="Group 1707483722_3">
<g id="Group 1707480054_2">
<g id="Group 1707480012_2">
<rect id="Rectangle 4811_2" x="-0.75" y="0.75" width="10.5" height="23.5" transform="matrix(-1 0 0 1 19.5 479)" stroke="#9ED0F4" stroke-width="1.5"/>
</g>
<g id="Group 1707480013_2">
<path id="Vector 3712_2" d="M15 504V518" stroke="#9ED0F4" stroke-width="2"/>
<g id="Group 1707480008_3">
<path id="Vector 3713_8" d="M8 519L22 519" stroke="#9ED0F4" stroke-width="2"/>
<path id="Vector 3714_8" d="M11 523H19" stroke="#9ED0F4" stroke-width="2"/>
<path id="Vector 3715_6" d="M13 527H17" stroke="#9ED0F4" stroke-width="2"/>
</g>
</g>
</g>
<g id="Group 1707483718_2">
<path id="Polygon 337_2" d="M15 497L19.5 491H10.5L15 497Z" fill="#9ED0F4"/>
<rect id="Rectangle 346240928_2" width="2" height="14" transform="matrix(-1 0 0 1 16 480)" fill="#9ED0F4"/>
</g>
</g>
<g id="Group 1707483721_2">
<g id="Group 1707480054_3">
<g id="Group 1707480013_3">
<path id="Vector 3712_3" d="M174 518V504L180.5 485.5" stroke="#00FFB3" stroke-width="2"/>
<g id="Group 1707480008_4">
<path id="Vector 3713_9" d="M181 519L167 519" stroke="white" stroke-width="2"/>
<path id="Vector 3714_9" d="M178 523H170" stroke="white" stroke-width="2"/>
<path id="Vector 3715_7" d="M176 527H172" stroke="white" stroke-width="2"/>
</g>
</g>
</g>
<g id="Group 1707483718_3">
<rect id="Rectangle 346240927" x="180.5" y="484.5" width="1" height="11" transform="rotate(90 180.5 484.5)" fill="#41FFF4" stroke="#00FFB2"/>
</g>
</g>
</g>
<rect id="Rectangle 346240934" x="95" y="847" width="3" height="28" fill="#9ED0F4"/>
<rect id="Rectangle 346240933" x="95" y="694" width="3" height="81" fill="#9ED0F4"/>
<g id="Group 1707480053">
<g id="Group 1707480029">
<circle id="Ellipse 4342" cx="96" cy="660" r="12.5" stroke="#9ED0F4" stroke-width="3"/>
<path id="Polygon 18" d="M104.103 664H87.9146L95.6401 652.715L104.103 664Z" stroke="#9ED0F4" stroke-width="2"/>
</g>
<g id="Group 1707480030">
<circle id="Ellipse 4342_2" cx="96" cy="680.11" r="12.5" stroke="#9ED0F4" stroke-width="3"/>
<g id="Group 1707480029_2">
<path id="Vector 3726" d="M89.8418 687.187L96.3764 682.375L102.911 687.187" stroke="#9ED0F4" stroke-width="3"/>
<path id="Vector 3727" d="M96.3763 682.375V673.625" stroke="#9ED0F4" stroke-width="3"/>
</g>
</g>
</g>
<g id="Group 1707480007_2">
<g id="Group 1707480002_3">
<rect id="Rectangle 346241066_3" x="87" y="791" width="20" height="35" rx="2" fill="#9ED0F4"/>
<path id="Vector 147_3" d="M98.5 790C98.5 789.172 97.8284 788.5 97 788.5C96.1716 788.5 95.5 789.172 95.5 790L98.5 790ZM95.5 790L95.5 793L98.5 793L98.5 790L95.5 790Z" fill="#9ED0F4"/>
<path id="Vector 149_3" d="M98.5 828C98.5 828.828 97.8284 829.5 97 829.5C96.1716 829.5 95.5 828.828 95.5 828L98.5 828ZM95.5 828L95.5 825L98.5 825L98.5 828L95.5 828Z" fill="#9ED0F4"/>
<g id="Group 1707484060_3">
<path id="Vector 144_5" d="M95.5001 786.016C95.5092 786.845 96.1881 787.509 97.0165 787.5C97.8449 787.491 98.509 786.812 98.4999 785.984L95.5001 786.016ZM95.3571 773.016L95.5001 786.016L98.4999 785.984L98.357 772.983L95.3571 773.016Z" fill="#9ED0F4"/>
<path id="Vector 145_5" d="M89.7142 780.363L97 772L104 780.363" stroke="#9ED0F4" stroke-width="3" stroke-linecap="round"/>
</g>
<g id="Group 1707484062_3">
<path id="Vector 144_6" d="M95.5001 831.984C95.5092 831.155 96.1881 830.491 97.0165 830.5C97.8449 830.509 98.509 831.188 98.4999 832.016L95.5001 831.984ZM95.3571 844.984L95.5001 831.984L98.4999 832.016L98.357 845.017L95.3571 844.984Z" fill="#9ED0F4"/>
<path id="Vector 145_6" d="M89.7142 837.637L97 846L104 837.637" stroke="#9ED0F4" stroke-width="3" stroke-linecap="round"/>
</g>
</g>
</g>
<path id="Line 322" d="M182 876H38V884H182" stroke="white" stroke-width="2"/>
<path id="Vector 3965" d="M95.5 707L59.5 729.5V899.5" stroke="#9ED0F4" stroke-width="2" stroke-dasharray="8 8"/>
<path id="Vector 3966" d="M39 902.5H182" stroke="#9ED0F4" stroke-width="2" stroke-dasharray="8 8"/>
</g>
</g>
</g>
<g id="Group 1707483764">
<g id="Group 1707483722_4">
<g id="Group 1707480044_3">
<g id="Group 1707479804_3">
<line id="Line 301_7" x1="1283.5" y1="250.02" x2="1283" y2="287.02" stroke="#9ED0F4" stroke-width="3"/>
</g>
<g id="Group 1707480006_3">
<path id="Line 301_8" d="M1283 359.003L1283 618" stroke="#9ED0F4" stroke-width="3"/>
</g>
<g id="Group 1707480008_5">
<g id="Group 1707480002_4">
<rect id="Rectangle 346241066_4" x="1273" y="304" width="20" height="35" rx="2" fill="#9ED0F4"/>
<path id="Vector 147_4" d="M1284.5 303C1284.5 302.172 1283.83 301.5 1283 301.5C1282.17 301.5 1281.5 302.172 1281.5 303L1284.5 303ZM1281.5 303L1281.5 306L1284.5 306L1284.5 303L1281.5 303Z" fill="#9ED0F4"/>
<path id="Vector 149_4" d="M1284.5 341C1284.5 341.828 1283.83 342.5 1283 342.5C1282.17 342.5 1281.5 341.828 1281.5 341L1284.5 341ZM1281.5 341L1281.5 338L1284.5 338L1284.5 341L1281.5 341Z" fill="#9ED0F4"/>
<g id="Group 1707484060_4">
<path id="Vector 144_7" d="M1281.5 299.016C1281.51 299.845 1282.19 300.509 1283.02 300.5C1283.84 300.491 1284.51 299.812 1284.5 298.984L1281.5 299.016ZM1281.36 286.016L1281.5 299.016L1284.5 298.984L1284.36 285.983L1281.36 286.016Z" fill="#9ED0F4"/>
<path id="Vector 145_7" d="M1275.71 293.363L1283 285L1290 293.363" stroke="#9ED0F4" stroke-width="3" stroke-linecap="round"/>
</g>
<g id="Group 1707484062_4">
<path id="Vector 144_8" d="M1281.5 344.984C1281.51 344.155 1282.19 343.491 1283.02 343.5C1283.84 343.509 1284.51 344.188 1284.5 345.016L1281.5 344.984ZM1281.36 357.984L1281.5 344.984L1284.5 345.016L1284.36 358.017L1281.36 357.984Z" fill="#9ED0F4"/>
<path id="Vector 145_8" d="M1275.71 350.637L1283 359L1290 350.637" stroke="#9ED0F4" stroke-width="3" stroke-linecap="round"/>
</g>
</g>
</g>
<circle id="Ellipse 3915_2" cx="1283" cy="511" r="9" stroke="#9ED0F4" stroke-width="2"/>
<g id="Group 1707483748_3">
<g id="Group 1707480016_2">
<path id="Vector 3711_3" d="M1204 480.423V449H1364V485" stroke="#9ED0F4" stroke-width="2"/>
<g id="Group 1707480015_3">
<path id="Vector 3713_10" d="M1249 485L1249 493" stroke="#9ED0F4" stroke-width="2"/>
<path id="Vector 3715_8" d="M1249 450L1249 480" stroke="#9ED0F4" stroke-width="2"/>
<path id="Vector 3714_10" d="M1249 507L1249 519.5" stroke="#9ED0F4" stroke-width="2"/>
<g id="Group 1707480011_3">
<path id="Vector 3713_11" d="M1256 520L1242 520" stroke="#9ED0F4" stroke-width="2"/>
<path id="Vector 3714_11" d="M1253 524H1245" stroke="#9ED0F4" stroke-width="2"/>
<path id="Vector 3715_9" d="M1251 528H1247" stroke="#9ED0F4" stroke-width="2"/>
</g>
<g id="Group 1707480009_3">
<path id="Vector 3713_12" d="M1256 481L1242 481" stroke="#9ED0F4" stroke-width="2"/>
<path id="Vector 3714_12" d="M1256 484L1242 483.984" stroke="#9ED0F4" stroke-width="2"/>
</g>
<g id="Group 1707480010_3">
<circle id="Ellipse 3917_3" cx="1249" cy="500" r="6.25" stroke="#9ED0F4" stroke-width="1.5"/>
<path id="Vector 3716_3" d="M1244.62 495.625L1253.38 504.375" stroke="#9ED0F4" stroke-width="1.5"/>
<path id="Vector 3717_3" d="M1252.94 495.625L1245.06 504.375" stroke="#9ED0F4" stroke-width="1.5"/>
</g>
</g>
</g>
<g id="Group 1707483723">
<g id="Group 1707480054_4">
<g id="Group 1707480012_3">
<rect id="Rectangle 4811_3" x="-0.75" y="0.75" width="10.5" height="23.5" transform="matrix(-1 0 0 1 1208.5 480)" stroke="#9ED0F4" stroke-width="1.5"/>
</g>
<g id="Group 1707480013_4">
<path id="Vector 3712_4" d="M1204 505V519" stroke="#9ED0F4" stroke-width="2"/>
<g id="Group 1707480008_6">
<path id="Vector 3713_13" d="M1197 520L1211 520" stroke="#9ED0F4" stroke-width="2"/>
<path id="Vector 3714_13" d="M1200 524H1208" stroke="#9ED0F4" stroke-width="2"/>
<path id="Vector 3715_10" d="M1202 528H1206" stroke="#9ED0F4" stroke-width="2"/>
</g>
</g>
</g>
<g id="Group 1707483718_4">
<path id="Polygon 337_3" d="M1204 498L1208.5 492H1199.5L1204 498Z" fill="#9ED0F4"/>
<rect id="Rectangle 346240928_3" width="2" height="14" transform="matrix(-1 0 0 1 1205 481)" fill="#9ED0F4"/>
</g>
</g>
<g id="Group 1707483720">
<g id="Group 1707480054_5">
<g id="Group 1707480013_5">
<path id="Vector 3712_5" d="M1363 519V505L1375 487" stroke="#FF5B44" stroke-width="2"/>
<g id="Group 1707480008_7">
<path id="Vector 3713_14" d="M1370 520L1356 520" stroke="white" stroke-width="2"/>
<path id="Vector 3714_14" d="M1367 524H1359" stroke="white" stroke-width="2"/>
<path id="Vector 3715_11" d="M1365 528H1361" stroke="white" stroke-width="2"/>
</g>
</g>
</g>
<g id="Group 1707483718_5">
<rect id="Rectangle 346240927_2" x="1369.5" y="485.5" width="1" height="10.9998" transform="rotate(90 1369.5 485.5)" fill="#41FFF4" stroke="#FF5B44"/>
</g>
</g>
</g>
</g>
</g>
</g>
<g id="Group 1707483761">
<g id="Group 1707483730">
<g id="Group 1707480063">
<g id="Group 1707480034">
<path id="Vector 3729" d="M701 246L701 200" stroke="#9ED0F4" stroke-width="3"/>
<g id="Vector 3735">
<path id="Vector 3720" d="M691 188L701 200L711 188" stroke="#9ED0F4" stroke-width="3"/>
</g>
<g id="Vector 3736">
<path id="Vector 3720_2" d="M691 177L701 189L711 177" stroke="#9ED0F4" stroke-width="3"/>
</g>
<g id="Rectangle 6169">
<g id="Rectangle 6164">
<mask id="path-141-inside-1_2002_253672" fill="white">
<rect width="22" height="32" rx="2" transform="matrix(1 0 0 -1 690 165)"/>
</mask>
<rect width="22" height="32" rx="2" transform="matrix(1 0 0 -1 690 165)" stroke="#9ED0F4" stroke-width="6" mask="url(#path-141-inside-1_2002_253672)"/>
</g>
</g>
<path id="Vector 3732" d="M701 187V113" stroke="#9ED0F4" stroke-width="3"/>
<g id="Group 1707480053_2">
<g id="Group 1707480029_3">
<path id="Ellipse 4342_3" d="M701.94 112.5C708.805 112.5 714.381 106.909 714.381 99.9995C714.381 93.0899 708.805 87.4995 701.94 87.4995C695.076 87.4995 689.5 93.0899 689.5 99.9995C689.5 106.909 695.076 112.5 701.94 112.5Z" stroke="#9ED0F4" stroke-width="3"/>
<g id="Group 1707480028">
<path id="Vector 3726_2" d="M695.841 104.375L702.376 99.562L708.911 104.375" stroke="#9ED0F4" stroke-width="3"/>
<path id="Vector 3727_2" d="M702.376 99.562V90.812" stroke="#9ED0F4" stroke-width="3"/>
</g>
</g>
<g id="Group 1707480031_2">
<path id="Ellipse 4342_4" d="M701.94 92.4995C708.805 92.4995 714.381 86.9091 714.381 79.9995C714.381 73.0899 708.805 67.4995 701.94 67.4995C695.076 67.4995 689.5 73.0899 689.5 79.9995C689.5 86.9091 695.076 92.4995 701.94 92.4995Z" stroke="#9ED0F4" stroke-width="3"/>
<g id="Group 1707480028_2">
<path id="Vector 3726_3" d="M695.841 84.3745L702.376 79.562L708.911 84.3745" stroke="#9ED0F4" stroke-width="3"/>
<path id="Vector 3727_3" d="M702.376 79.562V70.812" stroke="#9ED0F4" stroke-width="3"/>
</g>
</g>
<g id="Group 1707483729">
<path id="Vector 3975" d="M702 99.9995H638V79.9995" stroke="#9ED0F4" stroke-width="2"/>
<g id="Group 1707483727">
<path id="Vector 3976" d="M628.5 69.9995C628.5 69.1995 628.5 64.8328 628.5 62.4995L647.5 55.9995V48.9995" stroke="#9ED0F4" stroke-width="2"/>
<g id="Group 1707480054_6">
<g id="Group 1707480012_4">
<rect id="Rectangle 4811_4" x="0.75" y="-0.75" width="10.5" height="19.5" transform="matrix(1 0 0 -1 632 68.4995)" stroke="#9ED0F4" stroke-width="1.5"/>
</g>
<g id="Group 1707480013_6">
<path id="Vector 3712_6" d="M638 49.9995L638 39.9995" stroke="#9ED0F4" stroke-width="2"/>
<path id="Vector 3713_15" d="M638 79.9995L638 69.9995" stroke="#9ED0F4" stroke-width="2"/>
<g id="Group 1707480008_8">
<path id="Vector 3713_16" d="M645 38.9995L631 38.9995" stroke="#9ED0F4" stroke-width="2"/>
<path id="Vector 3714_15" d="M642 34.9995H634" stroke="#9ED0F4" stroke-width="2"/>
<path id="Vector 3715_12" d="M640 30.9995H636" stroke="#9ED0F4" stroke-width="2"/>
</g>
</g>
</g>
</g>
</g>
</g>
</g>
</g>
<g id="Group 1707480029_4">
<path id="Ellipse 4342_5" d="M722.94 112.5C729.805 112.5 735.381 106.909 735.381 99.9995C735.381 93.0899 729.805 87.4995 722.94 87.4995C716.076 87.4995 710.5 93.0899 710.5 99.9995C710.5 106.909 716.076 112.5 722.94 112.5Z" stroke="#9ED0F4" stroke-width="3"/>
<g id="Group 1707480028_3">
<path id="Vector 3726_4" d="M716.841 104.375L723.376 99.562L729.911 104.375" stroke="#9ED0F4" stroke-width="3"/>
<path id="Vector 3727_4" d="M723.376 99.562V90.812" stroke="#9ED0F4" stroke-width="3"/>
</g>
</g>
<g id="Group 1707483725">
<circle id="Ellipse 4342_6" cx="722" cy="78.9995" r="12.5" stroke="#9ED0F4" stroke-width="3"/>
<path id="Polygon 18_2" d="M730.103 82.9995H713.915L721.64 71.7153L730.103 82.9995Z" stroke="#9ED0F4" stroke-width="2"/>
</g>
<g id="Group 1707483723_2">
<path id="Ellipse 4342_7" d="M740.94 99.4995C747.805 99.4995 753.381 93.9091 753.381 86.9995C753.381 80.0899 747.805 74.4995 740.94 74.4995C734.076 74.4995 728.5 80.0899 728.5 86.9995C728.5 93.9091 734.076 99.4995 740.94 99.4995Z" stroke="#9ED0F4" stroke-width="3"/>
<g id="Group 1707480028_4">
<path id="Vector 3726_5" d="M734.841 91.3745L741.376 86.562L747.911 91.3745" stroke="#9ED0F4" stroke-width="3"/>
<path id="Vector 3727_5" d="M741.376 86.562V77.812" stroke="#9ED0F4" stroke-width="3"/>
</g>
</g>
<g id="Group 1707483728">
<path id="Vector 3976_2" d="M702 175H603V146" stroke="#9ED0F4" stroke-width="2"/>
<g id="Group 1707483722_5">
<g id="Group 1707480054_7">
<g id="Group 1707480012_5">
<rect id="Rectangle 4811_5" x="607.75" y="145.25" width="10.5" height="23.5" transform="rotate(180 607.75 145.25)" stroke="#9ED0F4" stroke-width="1.5"/>
</g>
<g id="Group 1707480013_7">
<path id="Vector 3712_7" d="M602.5 121V107" stroke="#9ED0F4" stroke-width="2"/>
<g id="Group 1707480008_9">
<path id="Vector 3713_17" d="M595.5 106L609.5 106" stroke="#9ED0F4" stroke-width="2"/>
<path id="Vector 3714_16" d="M598.5 102H606.5" stroke="#9ED0F4" stroke-width="2"/>
<path id="Vector 3715_13" d="M600.5 97.9995H604.5" stroke="#9ED0F4" stroke-width="2"/>
</g>
</g>
</g>
<g id="Group 1707483718_6">
<path id="Polygon 337_4" d="M602.5 127.999L607 133.999H598L602.5 127.999Z" fill="#9ED0F4"/>
<rect id="Rectangle 346240928_4" x="603.5" y="145" width="2" height="14" transform="rotate(180 603.5 145)" fill="#9ED0F4"/>
</g>
</g>
</g>
</g>
</g>
<g id="Group 1707483757">
<g id="Group 1707483755">
<path id="Line 325" d="M944 452L703 452" stroke="#9ED0F4" stroke-width="2"/>
<g id="Group 1707483754">
<g id="Group 1707483740">
<path id="Line 323" d="M701 250L701 474" stroke="#9ED0F4" stroke-width="2"/>
<circle id="Ellipse 13814_2" cx="701" cy="452" r="4" fill="#9ED0F4"/>
</g>
<g id="Group 1707480015_4">
<path id="Vector 3713_18" d="M701 509L701 517" stroke="#9ED0F4" stroke-width="2"/>
<path id="Vector 3715_14" d="M701 474L701 504" stroke="#9ED0F4" stroke-width="2"/>
<path id="Vector 3714_17" d="M701 531L701 543.5" stroke="#9ED0F4" stroke-width="2"/>
<g id="Group 1707480011_4">
<path id="Vector 3713_19" d="M708 544L694 544" stroke="#9ED0F4" stroke-width="2"/>
<path id="Vector 3714_18" d="M705 548H697" stroke="#9ED0F4" stroke-width="2"/>
<path id="Vector 3715_15" d="M703 552H699" stroke="#9ED0F4" stroke-width="2"/>
</g>
<g id="Group 1707480009_4">
<path id="Vector 3713_20" d="M708 505L694 505" stroke="#9ED0F4" stroke-width="2"/>
<path id="Vector 3714_19" d="M708 508L694 507.984" stroke="#9ED0F4" stroke-width="2"/>
</g>
<g id="Group 1707480010_4">
<circle id="Ellipse 3917_4" cx="701" cy="524" r="6.25" stroke="#9ED0F4" stroke-width="1.5"/>
<path id="Vector 3716_4" d="M696.625 519.625L705.375 528.375" stroke="#9ED0F4" stroke-width="1.5"/>
<path id="Vector 3717_4" d="M704.938 519.625L697.063 528.375" stroke="#9ED0F4" stroke-width="1.5"/>
</g>
</g>
</g>
<g id="Group 1707483747">
<g id="Group 1707483741">
<path id="Line 324" d="M948 250L948 474" stroke="#9ED0F4" stroke-width="2"/>
<circle id="Ellipse 13815" cx="948" cy="452" r="4" fill="#9ED0F4"/>
</g>
<g id="Group 1707483742">
<path id="Vector 3713_21" d="M948 509L948 517" stroke="#9ED0F4" stroke-width="2"/>
<path id="Vector 3715_16" d="M948 474L948 504" stroke="#9ED0F4" stroke-width="2"/>
<path id="Vector 3714_20" d="M948 531L948 543.5" stroke="#9ED0F4" stroke-width="2"/>
<g id="Group 1707480011_5">
<path id="Vector 3713_22" d="M955 544L941 544" stroke="#9ED0F4" stroke-width="2"/>
<path id="Vector 3714_21" d="M952 548H944" stroke="#9ED0F4" stroke-width="2"/>
<path id="Vector 3715_17" d="M950 552H946" stroke="#9ED0F4" stroke-width="2"/>
</g>
<g id="Group 1707480009_5">
<path id="Vector 3713_23" d="M955 505L941 505" stroke="#9ED0F4" stroke-width="2"/>
<path id="Vector 3714_22" d="M955 508L941 507.984" stroke="#9ED0F4" stroke-width="2"/>
</g>
<g id="Group 1707480010_5">
<circle id="Ellipse 3917_5" cx="948" cy="524" r="6.25" stroke="#9ED0F4" stroke-width="1.5"/>
<path id="Vector 3716_5" d="M943.625 519.625L952.375 528.375" stroke="#9ED0F4" stroke-width="1.5"/>
<path id="Vector 3717_5" d="M951.938 519.625L944.063 528.375" stroke="#9ED0F4" stroke-width="1.5"/>
</g>
</g>
<g id="Group 1707483746">
<path id="Vector 3977" d="M949 424.5H1022.5V505" stroke="#9ED0F4" stroke-width="2"/>
<rect id="Rectangle 346240935" x="1016" y="455" width="13" height="29" stroke="#9ED0F4" stroke-width="2"/>
<g id="Group 1707483724">
<g id="Group 1707480029_5">
<circle id="Ellipse 4342_8" cx="1022" cy="519" r="12.5" stroke="#9ED0F4" stroke-width="3"/>
<path id="Polygon 18_3" d="M1030.1 523H1013.91L1021.64 511.715L1030.1 523Z" stroke="#9ED0F4" stroke-width="2"/>
</g>
<g id="Group 1707480030_2">
<circle id="Ellipse 4342_9" cx="1022" cy="539.11" r="12.5" stroke="#9ED0F4" stroke-width="3"/>
<g id="Group 1707480029_6">
<path id="Vector 3726_6" d="M1015.84 546.187L1022.38 541.375L1028.91 546.187" stroke="#9ED0F4" stroke-width="3"/>
<path id="Vector 3727_6" d="M1022.38 541.375V532.625" stroke="#9ED0F4" stroke-width="3"/>
</g>
</g>
</g>
</g>
</g>
</g>
</g>
<g id="Group 1707483763">
<g id="Group 1707483721_3">
<g id="Group 1707480044_4">
<g id="Group 1707479804_4">
<line id="Line 301_9" x1="428" y1="250" x2="428" y2="290" stroke="#9ED0F4" stroke-width="3"/>
</g>
<g id="Group 1707480006_4">
<path id="Line 301_10" d="M428 358.5L428.5 608.5" stroke="#9ED0F4" stroke-width="3"/>
</g>
<g id="Group 1707480008_10">
<g id="Group 1707480002_5">
<rect id="Rectangle 346241066_5" x="418" y="304" width="20" height="35" rx="2" fill="#9ED0F4"/>
<path id="Vector 147_5" d="M429.5 303C429.5 302.172 428.828 301.5 428 301.5C427.172 301.5 426.5 302.172 426.5 303L429.5 303ZM426.5 303L426.5 306L429.5 306L429.5 303L426.5 303Z" fill="#9ED0F4"/>
<path id="Vector 149_5" d="M429.5 341C429.5 341.828 428.828 342.5 428 342.5C427.172 342.5 426.5 341.828 426.5 341L429.5 341ZM426.5 341L426.5 338L429.5 338L429.5 341L426.5 341Z" fill="#9ED0F4"/>
<g id="Group 1707484060_5">
<path id="Vector 144_9" d="M426.5 299.016C426.509 299.845 427.188 300.509 428.016 300.5C428.845 300.491 429.509 299.812 429.5 298.984L426.5 299.016ZM426.357 286.016L426.5 299.016L429.5 298.984L429.357 285.983L426.357 286.016Z" fill="#9ED0F4"/>
<path id="Vector 145_9" d="M420.714 293.363L428 285L435 293.363" stroke="#9ED0F4" stroke-width="3" stroke-linecap="round"/>
</g>
<g id="Group 1707484062_5">
<path id="Vector 144_10" d="M426.5 344.984C426.509 344.155 427.188 343.491 428.016 343.5C428.845 343.509 429.509 344.188 429.5 345.016L426.5 344.984ZM426.357 357.984L426.5 344.984L429.5 345.016L429.357 358.017L426.357 357.984Z" fill="#9ED0F4"/>
<path id="Vector 145_10" d="M420.714 350.637L428 359L435 350.637" stroke="#9ED0F4" stroke-width="3" stroke-linecap="round"/>
</g>
</g>
</g>
<circle id="Ellipse 3915_3" cx="428.5" cy="510.5" r="8.5" stroke="#9ED0F4" stroke-width="2"/>
</g>
<g id="Group 1707483748_4">
<g id="Group 1707480016_3">
<path id="Vector 3711_4" d="M349 479.423V448H509V484" stroke="#9ED0F4" stroke-width="2"/>
<g id="Group 1707480015_5">
<path id="Vector 3713_24" d="M394 484L394 492" stroke="#9ED0F4" stroke-width="2"/>
<path id="Vector 3715_18" d="M394 449L394 479" stroke="#9ED0F4" stroke-width="2"/>
<path id="Vector 3714_23" d="M394 506L394 518.5" stroke="#9ED0F4" stroke-width="2"/>
<g id="Group 1707480011_6">
<path id="Vector 3713_25" d="M401 519L387 519" stroke="#9ED0F4" stroke-width="2"/>
<path id="Vector 3714_24" d="M398 523H390" stroke="#9ED0F4" stroke-width="2"/>
<path id="Vector 3715_19" d="M396 527H392" stroke="#9ED0F4" stroke-width="2"/>
</g>
<g id="Group 1707480009_6">
<path id="Vector 3713_26" d="M401 480L387 480" stroke="#9ED0F4" stroke-width="2"/>
<path id="Vector 3714_25" d="M401 483L387 482.984" stroke="#9ED0F4" stroke-width="2"/>
</g>
<g id="Group 1707480010_6">
<circle id="Ellipse 3917_6" cx="394" cy="499" r="6.25" stroke="#9ED0F4" stroke-width="1.5"/>
<path id="Vector 3716_6" d="M389.625 494.625L398.375 503.375" stroke="#9ED0F4" stroke-width="1.5"/>
<path id="Vector 3717_6" d="M397.938 494.625L390.063 503.375" stroke="#9ED0F4" stroke-width="1.5"/>
</g>
</g>
</g>
<g id="Group 1707483723_3">
<g id="Group 1707480054_8">
<g id="Group 1707480012_6">
<rect id="Rectangle 4811_6" x="-0.75" y="0.75" width="10.5" height="23.5" transform="matrix(-1 0 0 1 353.5 479)" stroke="#9ED0F4" stroke-width="1.5"/>
</g>
<g id="Group 1707480013_8">
<path id="Vector 3712_8" d="M349 504V518" stroke="#9ED0F4" stroke-width="2"/>
<g id="Group 1707480008_11">
<path id="Vector 3713_27" d="M342 519L356 519" stroke="#9ED0F4" stroke-width="2"/>
<path id="Vector 3714_26" d="M345 523H353" stroke="#9ED0F4" stroke-width="2"/>
<path id="Vector 3715_20" d="M347 527H351" stroke="#9ED0F4" stroke-width="2"/>
</g>
</g>
</g>
<g id="Group 1707483718_7">
<path id="Polygon 337_5" d="M349 497L353.5 491H344.5L349 497Z" fill="#9ED0F4"/>
<rect id="Rectangle 346240928_5" width="2" height="14" transform="matrix(-1 0 0 1 350 480)" fill="#9ED0F4"/>
</g>
</g>
<g id="Group 1707483721_4">
<g id="Group 1707480054_9">
<g id="Group 1707480013_9">
<path id="Vector 3712_9" d="M508 518V504L514.5 485.5" stroke="#00FFB3" stroke-width="2"/>
<g id="Group 1707480008_12">
<path id="Vector 3713_28" d="M515 519L501 519" stroke="white" stroke-width="2"/>
<path id="Vector 3714_27" d="M512 523H504" stroke="white" stroke-width="2"/>
<path id="Vector 3715_21" d="M510 527H506" stroke="white" stroke-width="2"/>
</g>
</g>
</g>
<g id="Group 1707483718_8">
<rect id="Rectangle 346240927_3" x="514.5" y="484.5" width="1" height="11" transform="rotate(90 514.5 484.5)" fill="#41FFF4" stroke="#00FFB2"/>
</g>
</g>
</g>
<rect id="Rectangle 346240932" x="427" y="608" width="3" height="68" fill="#9ED0F4"/>
<path id="Vector 3966_2" d="M427 639H830.091H834.5" stroke="#9ED0F4" stroke-width="3"/>
<g id="Group 1707483737">
<g id="Group 1707483732">
<path id="Vector 3967" d="M564 639L564 650" stroke="#9ED0F4" stroke-width="3"/>
<path id="Vector 3970" d="M564 650L564 676" stroke="#9ED0F4" stroke-width="3"/>
</g>
<g id="Group 1707483721_5">
<g id="Group 1707480029_7">
<circle id="Ellipse 4342_10" cx="564" cy="690" r="12.5" stroke="#9ED0F4" stroke-width="3"/>
<path id="Polygon 18_4" d="M572.103 694H555.915L563.64 682.715L572.103 694Z" stroke="#9ED0F4" stroke-width="2"/>
</g>
<g id="Group 1707480030_3">
<circle id="Ellipse 4342_11" cx="564" cy="710.11" r="12.5" stroke="#9ED0F4" stroke-width="3"/>
<g id="Group 1707480029_8">
<path id="Vector 3726_7" d="M557.842 717.187L564.376 712.375L570.911 717.187" stroke="#9ED0F4" stroke-width="3"/>
<path id="Vector 3727_7" d="M564.376 712.375V703.625" stroke="#9ED0F4" stroke-width="3"/>
</g>
</g>
</g>
</g>
<g id="Group 1707483722_6">
<g id="Group 1707480029_9">
<circle id="Ellipse 4342_12" cx="429" cy="690" r="12.5" stroke="#9ED0F4" stroke-width="3"/>
<path id="Polygon 18_5" d="M437.103 694H420.915L428.64 682.715L437.103 694Z" stroke="#9ED0F4" stroke-width="2"/>
</g>
<g id="Group 1707480030_4">
<circle id="Ellipse 4342_13" cx="429" cy="710.11" r="12.5" stroke="#9ED0F4" stroke-width="3"/>
<g id="Group 1707480029_10">
<path id="Vector 3726_8" d="M422.842 717.187L429.376 712.375L435.911 717.187" stroke="#9ED0F4" stroke-width="3"/>
<path id="Vector 3727_8" d="M429.376 712.375V703.625" stroke="#9ED0F4" stroke-width="3"/>
</g>
</g>
</g>
<g id="Group 1707483736">
<g id="Group 1707483723_4">
<g id="Group 1707480029_11">
<circle id="Ellipse 4342_14" cx="699" cy="690" r="12.5" stroke="#9ED0F4" stroke-width="3"/>
<path id="Polygon 18_6" d="M707.103 694H690.915L698.64 682.715L707.103 694Z" stroke="#9ED0F4" stroke-width="2"/>
</g>
<g id="Group 1707480030_5">
<circle id="Ellipse 4342_15" cx="699" cy="710.11" r="12.5" stroke="#9ED0F4" stroke-width="3"/>
<g id="Group 1707480029_12">
<path id="Vector 3726_9" d="M692.842 717.187L699.376 712.375L705.911 717.187" stroke="#9ED0F4" stroke-width="3"/>
<path id="Vector 3727_9" d="M699.376 712.375V703.625" stroke="#9ED0F4" stroke-width="3"/>
</g>
</g>
</g>
<g id="Group 1707483733">
<path id="Vector 3967_2" d="M699 639L699 650" stroke="#9ED0F4" stroke-width="3"/>
<path id="Vector 3970_2" d="M699 650L699 676" stroke="#9ED0F4" stroke-width="3"/>
</g>
</g>
<g id="Group 1707483735">
<g id="Group 1707483724_2">
<g id="Group 1707480029_13">
<circle id="Ellipse 4342_16" cx="834" cy="690" r="12.5" stroke="#9ED0F4" stroke-width="3"/>
<path id="Polygon 18_7" d="M842.103 694H825.915L833.64 682.715L842.103 694Z" stroke="#9ED0F4" stroke-width="2"/>
</g>
<g id="Group 1707480030_6">
<circle id="Ellipse 4342_17" cx="834" cy="710.11" r="12.5" stroke="#9ED0F4" stroke-width="3"/>
<g id="Group 1707480029_14">
<path id="Vector 3726_10" d="M827.842 717.187L834.376 712.375L840.911 717.187" stroke="#9ED0F4" stroke-width="3"/>
<path id="Vector 3727_10" d="M834.376 712.375V703.625" stroke="#9ED0F4" stroke-width="3"/>
</g>
</g>
</g>
<g id="Group 1707483734">
<path id="Vector 3967_3" d="M833 639L833 650" stroke="#9ED0F4" stroke-width="3"/>
<path id="Vector 3970_3" d="M833 650L833 676" stroke="#9ED0F4" stroke-width="3"/>
</g>
</g>
</g>
</g>
</g>
<g id="Group 1707483829">
<line id="Line 327" x1="428.5" y1="724" x2="428.5" y2="769" stroke="#9ED0F4"/>
<line id="Line 328" x1="564.5" y1="724" x2="564.5" y2="766" stroke="#9ED0F4"/>
<line id="Line 329" x1="699.5" y1="724" x2="699.5" y2="766" stroke="#9ED0F4"/>
<line id="Line 330" x1="833.5" y1="724" x2="833.5" y2="773" stroke="#9ED0F4"/>
</g>
</g>
</g>
<g id="Frame 427319695_2">
<rect x="265.25" y="207.25" width="95.5" height="26.5" rx="2.75" fill="url(#paint18_linear_2002_253672)" fill-opacity="0.4"/>
<rect x="265.25" y="207.25" width="95.5" height="26.5" rx="2.75" stroke="url(#paint19_linear_2002_253672)" stroke-width="0.5"/>
<path id="10kV 1A&#230;&#174;&#181;" d="M276.036 217.984V216.272L279.508 214.272H280.836V226H279.092V216.256L276.036 217.984ZM292.357 220.144C292.357 222.117 292.016 223.616 291.333 224.64C290.661 225.664 289.696 226.176 288.437 226.176C287.189 226.176 286.224 225.664 285.541 224.64C284.869 223.616 284.533 222.117 284.533 220.144C284.533 218.16 284.869 216.656 285.541 215.632C286.224 214.597 287.189 214.08 288.437 214.08C289.696 214.08 290.661 214.592 291.333 215.616C292.016 216.64 292.357 218.149 292.357 220.144ZM286.357 220.144C286.357 221.637 286.528 222.757 286.869 223.504C287.21 224.24 287.733 224.608 288.437 224.608C289.152 224.608 289.674 224.24 290.005 223.504C290.346 222.768 290.517 221.648 290.517 220.144C290.517 218.629 290.346 217.504 290.005 216.768C289.674 216.021 289.152 215.648 288.437 215.648C287.733 215.648 287.21 216.021 286.869 216.768C286.528 217.504 286.357 218.629 286.357 220.144ZM298.39 221.104L301.798 226H299.782L297.27 222.352L295.894 223.888V226H294.246V213.824H295.894V221.824L299.478 217.696H301.446L298.39 221.104ZM302.813 214.288L306.349 223.648L309.725 214.288H311.501L307.021 226H305.565L300.893 214.288H302.813ZM316.801 217.984V216.272L320.273 214.272H321.601V226H319.857V216.256L316.801 217.984ZM330.675 214.288L335.379 226H333.507L332.307 222.864H327.555L326.403 226H324.675L329.203 214.288H330.675ZM331.731 221.36L329.875 216.528L328.115 221.36H331.731ZM342.7 223.952C341.314 224.133 340.039 224.304 338.876 224.464V227.2H337.532V224.64L336.252 224.816L336.204 223.36L337.532 223.216V213.52C338.311 213.466 339.175 213.365 340.124 213.216C341.074 213.056 341.868 212.885 342.508 212.704L342.892 214.096C342.423 214.224 341.794 214.352 341.004 214.48C340.226 214.608 339.516 214.709 338.876 214.784V216.464H342.22V217.824H338.876V219.6H342.22V220.96H338.876V223.04C339.751 222.933 341.026 222.762 342.7 222.528V223.952ZM342.444 217.936C342.86 217.594 343.164 217.296 343.356 217.04C343.559 216.784 343.698 216.506 343.772 216.208C343.847 215.909 343.884 215.514 343.884 215.024V213.248H348.908V216.16C348.908 216.458 348.951 216.656 349.036 216.752C349.132 216.837 349.324 216.89 349.612 216.912L350.204 216.928L350.78 216.912L350.524 218.256L349.82 218.272L349.116 218.256C348.572 218.234 348.178 218.117 347.932 217.904C347.687 217.69 347.564 217.317 347.564 216.784V214.592H345.228V215.472C345.228 216.154 345.1 216.741 344.844 217.232C344.599 217.712 344.14 218.24 343.468 218.816L342.444 217.936ZM350.252 227.264C348.716 226.634 347.42 225.866 346.364 224.96C345.308 225.813 343.938 226.592 342.252 227.296L341.516 225.888C343.063 225.29 344.332 224.64 345.324 223.936C344.46 222.954 343.751 221.786 343.196 220.432H342.796V219.136H349.772V220.48C349.154 221.92 348.359 223.114 347.388 224.064C348.306 224.757 349.49 225.344 350.94 225.824L350.252 227.264ZM344.716 220.432C345.143 221.488 345.687 222.384 346.348 223.12C347.138 222.362 347.772 221.466 348.252 220.432H344.716Z" fill="white"/>
</g>
</g>
<g id="Frame 427319692_2">
<rect x="576.25" y="883.25" width="71.5" height="26.5" rx="2.75" fill="url(#paint20_linear_2002_253672)" fill-opacity="0.4"/>
<rect x="576.25" y="883.25" width="71.5" height="26.5" rx="2.75" stroke="url(#paint21_linear_2002_253672)" stroke-width="0.5"/>
<path id="&#229;&#133;&#137;&#228;&#188;&#143;&#229;&#142;&#130;&#229;&#140;&#186;" d="M595.04 898.816C595.04 899.072 595.029 899.408 595.008 899.824C594.997 900.229 594.981 900.549 594.96 900.784C594.928 901.328 594.843 901.733 594.704 902C594.565 902.277 594.357 902.469 594.08 902.576C593.813 902.693 593.424 902.773 592.912 902.816C592.549 902.848 592.181 902.864 591.808 902.864C591.445 902.864 591.072 902.848 590.688 902.816C590.197 902.773 589.819 902.688 589.552 902.56C589.285 902.443 589.088 902.24 588.96 901.952C588.843 901.664 588.784 901.253 588.784 900.72V896.016H586.4L586.384 896.304C586.309 897.477 586.128 898.469 585.84 899.28C585.563 900.08 585.104 900.805 584.464 901.456C583.824 902.096 582.928 902.709 581.776 903.296L580.544 901.984C581.632 901.483 582.475 900.976 583.072 900.464C583.68 899.941 584.112 899.355 584.368 898.704C584.624 898.043 584.768 897.232 584.8 896.272L584.816 896.016H580.96V894.56H587.184V888.64H588.752V894.56H594.976V896.016H590.368V900.272C590.368 900.635 590.427 900.88 590.544 901.008C590.672 901.136 590.907 901.227 591.248 901.28C591.493 901.312 591.733 901.328 591.968 901.328C592.213 901.328 592.448 901.312 592.672 901.28C593.003 901.227 593.227 901.136 593.344 901.008C593.472 900.869 593.541 900.624 593.552 900.272C593.584 899.515 593.589 898.949 593.568 898.576L595.04 898.816ZM594.08 890.416C593.707 890.96 593.243 891.584 592.688 892.288C592.133 892.981 591.637 893.568 591.2 894.048L590.016 893.104C590.496 892.603 590.997 892.021 591.52 891.36C592.043 890.688 592.48 890.08 592.832 889.536L594.08 890.416ZM584.672 894.016C584.309 893.493 583.84 892.869 583.264 892.144C582.699 891.408 582.229 890.848 581.856 890.464L583.04 889.584C583.424 889.989 583.915 890.555 584.512 891.28C585.12 892.005 585.589 892.603 585.92 893.072L584.672 894.016ZM601.568 888.992C601.131 890.325 600.661 891.52 600.16 892.576V903.184H598.688V895.248C598.219 895.984 597.728 896.699 597.216 897.392L596.416 895.696C597.077 894.875 597.744 893.792 598.416 892.448C599.099 891.104 599.648 889.776 600.064 888.464L601.568 888.992ZM606.448 894.272C606.949 897.451 608.613 900.005 611.44 901.936L610.304 903.232C609.269 902.496 608.373 901.621 607.616 900.608C606.859 899.595 606.256 898.501 605.808 897.328C605.456 898.384 604.923 899.392 604.208 900.352C603.504 901.312 602.565 902.293 601.392 903.296L600.288 902.048C601.333 901.205 602.176 900.389 602.816 899.6C603.456 898.8 603.936 897.973 604.256 897.12C604.576 896.267 604.773 895.317 604.848 894.272H601.104V892.768H604.88V888.592H606.432V892.768H611.056V894.272H606.448ZM609.52 892.448C609.061 891.915 608.272 891.072 607.152 889.92L608.16 888.976C608.437 889.232 608.816 889.605 609.296 890.096C609.787 890.576 610.219 891.019 610.592 891.424L609.52 892.448ZM612.544 902.64C613.141 901.627 613.573 900.773 613.84 900.08C614.107 899.376 614.288 898.565 614.384 897.648C614.491 896.731 614.544 895.44 614.544 893.776V889.6H627.072V891.2H616.128V893.904C616.128 895.6 616.069 896.965 615.952 898C615.835 899.035 615.632 899.947 615.344 900.736C615.067 901.515 614.651 902.389 614.096 903.36L612.544 902.64ZM631.36 890.688V901.184H643.104V902.656H629.856V889.248H642.8V890.688H631.36ZM632.112 899.152C633.413 898.288 634.752 897.189 636.128 895.856C634.613 894.395 633.413 893.285 632.528 892.528L633.536 891.472C634.549 892.357 635.755 893.467 637.152 894.8C638.208 893.68 639.168 892.507 640.032 891.28L641.264 892.176C640.357 893.392 639.344 894.608 638.224 895.824C639.408 896.965 640.56 898.096 641.68 899.216L640.544 900.368C639.733 899.451 638.619 898.293 637.2 896.896C635.771 898.325 634.395 899.504 633.072 900.432L632.112 899.152Z" fill="white"/>
</g>
</g>
</g>
<defs>
<linearGradient id="paint0_linear_2002_253672" x1="755" y1="170" x2="755" y2="143" gradientUnits="userSpaceOnUse">
<stop stop-color="#11588A" stop-opacity="0"/>
<stop offset="0.19" stop-color="#12598B" stop-opacity="0.01"/>
<stop offset="0.32" stop-color="#165E8F" stop-opacity="0.05"/>
<stop offset="0.44" stop-color="#1D6796" stop-opacity="0.11"/>
<stop offset="0.54" stop-color="#2674A0" stop-opacity="0.2"/>
<stop offset="0.64" stop-color="#3384AD" stop-opacity="0.31"/>
<stop offset="0.74" stop-color="#4298BE" stop-opacity="0.44"/>
<stop offset="0.83" stop-color="#54AFD1" stop-opacity="0.61"/>
<stop offset="0.92" stop-color="#68CAE6" stop-opacity="0.79"/>
<stop offset="1" stop-color="#80E8FF"/>
</linearGradient>
<linearGradient id="paint1_linear_2002_253672" x1="755.015" y1="170.011" x2="755.015" y2="143" gradientUnits="userSpaceOnUse">
<stop stop-color="#4FD3FF" stop-opacity="0.24"/>
<stop offset="0.11" stop-color="#50D3FF" stop-opacity="0.1"/>
<stop offset="0.28" stop-color="#56D6FF" stop-opacity="0.11"/>
<stop offset="0.47" stop-color="#5FDAFF" stop-opacity="0.23"/>
<stop offset="0.7" stop-color="#6BDFFF" stop-opacity="0.41"/>
<stop offset="0.94" stop-color="#7BE6FF" stop-opacity="0.64"/>
<stop offset="1" stop-color="#80E8FF" stop-opacity="0.7"/>
</linearGradient>
<linearGradient id="paint2_linear_2002_253672" x1="221" y1="515" x2="221" y2="488" gradientUnits="userSpaceOnUse">
<stop stop-color="#11588A" stop-opacity="0"/>
<stop offset="0.19" stop-color="#12598B" stop-opacity="0.01"/>
<stop offset="0.32" stop-color="#165E8F" stop-opacity="0.05"/>
<stop offset="0.44" stop-color="#1D6796" stop-opacity="0.11"/>
<stop offset="0.54" stop-color="#2674A0" stop-opacity="0.2"/>
<stop offset="0.64" stop-color="#3384AD" stop-opacity="0.31"/>
<stop offset="0.74" stop-color="#4298BE" stop-opacity="0.44"/>
<stop offset="0.83" stop-color="#54AFD1" stop-opacity="0.61"/>
<stop offset="0.92" stop-color="#68CAE6" stop-opacity="0.79"/>
<stop offset="1" stop-color="#80E8FF"/>
</linearGradient>
<linearGradient id="paint3_linear_2002_253672" x1="221.015" y1="515.011" x2="221.015" y2="488" gradientUnits="userSpaceOnUse">
<stop stop-color="#4FD3FF" stop-opacity="0.24"/>
<stop offset="0.11" stop-color="#50D3FF" stop-opacity="0.1"/>
<stop offset="0.28" stop-color="#56D6FF" stop-opacity="0.11"/>
<stop offset="0.47" stop-color="#5FDAFF" stop-opacity="0.23"/>
<stop offset="0.7" stop-color="#6BDFFF" stop-opacity="0.41"/>
<stop offset="0.94" stop-color="#7BE6FF" stop-opacity="0.64"/>
<stop offset="1" stop-color="#80E8FF" stop-opacity="0.7"/>
</linearGradient>
<linearGradient id="paint4_linear_2002_253672" x1="555" y1="512" x2="555" y2="485" gradientUnits="userSpaceOnUse">
<stop stop-color="#11588A" stop-opacity="0"/>
<stop offset="0.19" stop-color="#12598B" stop-opacity="0.01"/>
<stop offset="0.32" stop-color="#165E8F" stop-opacity="0.05"/>
<stop offset="0.44" stop-color="#1D6796" stop-opacity="0.11"/>
<stop offset="0.54" stop-color="#2674A0" stop-opacity="0.2"/>
<stop offset="0.64" stop-color="#3384AD" stop-opacity="0.31"/>
<stop offset="0.74" stop-color="#4298BE" stop-opacity="0.44"/>
<stop offset="0.83" stop-color="#54AFD1" stop-opacity="0.61"/>
<stop offset="0.92" stop-color="#68CAE6" stop-opacity="0.79"/>
<stop offset="1" stop-color="#80E8FF"/>
</linearGradient>
<linearGradient id="paint5_linear_2002_253672" x1="555.015" y1="512.011" x2="555.015" y2="485" gradientUnits="userSpaceOnUse">
<stop stop-color="#4FD3FF" stop-opacity="0.24"/>
<stop offset="0.11" stop-color="#50D3FF" stop-opacity="0.1"/>
<stop offset="0.28" stop-color="#56D6FF" stop-opacity="0.11"/>
<stop offset="0.47" stop-color="#5FDAFF" stop-opacity="0.23"/>
<stop offset="0.7" stop-color="#6BDFFF" stop-opacity="0.41"/>
<stop offset="0.94" stop-color="#7BE6FF" stop-opacity="0.64"/>
<stop offset="1" stop-color="#80E8FF" stop-opacity="0.7"/>
</linearGradient>
<linearGradient id="paint6_linear_2002_253672" x1="992" y1="414" x2="992" y2="387" gradientUnits="userSpaceOnUse">
<stop stop-color="#11588A" stop-opacity="0"/>
<stop offset="0.19" stop-color="#12598B" stop-opacity="0.01"/>
<stop offset="0.32" stop-color="#165E8F" stop-opacity="0.05"/>
<stop offset="0.44" stop-color="#1D6796" stop-opacity="0.11"/>
<stop offset="0.54" stop-color="#2674A0" stop-opacity="0.2"/>
<stop offset="0.64" stop-color="#3384AD" stop-opacity="0.31"/>
<stop offset="0.74" stop-color="#4298BE" stop-opacity="0.44"/>
<stop offset="0.83" stop-color="#54AFD1" stop-opacity="0.61"/>
<stop offset="0.92" stop-color="#68CAE6" stop-opacity="0.79"/>
<stop offset="1" stop-color="#80E8FF"/>
</linearGradient>
<linearGradient id="paint7_linear_2002_253672" x1="992.015" y1="414.011" x2="992.015" y2="387" gradientUnits="userSpaceOnUse">
<stop stop-color="#4FD3FF" stop-opacity="0.24"/>
<stop offset="0.11" stop-color="#50D3FF" stop-opacity="0.1"/>
<stop offset="0.28" stop-color="#56D6FF" stop-opacity="0.11"/>
<stop offset="0.47" stop-color="#5FDAFF" stop-opacity="0.23"/>
<stop offset="0.7" stop-color="#6BDFFF" stop-opacity="0.41"/>
<stop offset="0.94" stop-color="#7BE6FF" stop-opacity="0.64"/>
<stop offset="1" stop-color="#80E8FF" stop-opacity="0.7"/>
</linearGradient>
<linearGradient id="paint8_linear_2002_253672" x1="1320" y1="335" x2="1320" y2="308" gradientUnits="userSpaceOnUse">
<stop stop-color="#11588A" stop-opacity="0"/>
<stop offset="0.19" stop-color="#12598B" stop-opacity="0.01"/>
<stop offset="0.32" stop-color="#165E8F" stop-opacity="0.05"/>
<stop offset="0.44" stop-color="#1D6796" stop-opacity="0.11"/>
<stop offset="0.54" stop-color="#2674A0" stop-opacity="0.2"/>
<stop offset="0.64" stop-color="#3384AD" stop-opacity="0.31"/>
<stop offset="0.74" stop-color="#4298BE" stop-opacity="0.44"/>
<stop offset="0.83" stop-color="#54AFD1" stop-opacity="0.61"/>
<stop offset="0.92" stop-color="#68CAE6" stop-opacity="0.79"/>
<stop offset="1" stop-color="#80E8FF"/>
</linearGradient>
<linearGradient id="paint9_linear_2002_253672" x1="1320.01" y1="335.011" x2="1320.01" y2="308" gradientUnits="userSpaceOnUse">
<stop stop-color="#4FD3FF" stop-opacity="0.24"/>
<stop offset="0.11" stop-color="#50D3FF" stop-opacity="0.1"/>
<stop offset="0.28" stop-color="#56D6FF" stop-opacity="0.11"/>
<stop offset="0.47" stop-color="#5FDAFF" stop-opacity="0.23"/>
<stop offset="0.7" stop-color="#6BDFFF" stop-opacity="0.41"/>
<stop offset="0.94" stop-color="#7BE6FF" stop-opacity="0.64"/>
<stop offset="1" stop-color="#80E8FF" stop-opacity="0.7"/>
</linearGradient>
<linearGradient id="paint10_linear_2002_253672" x1="1420" y1="191" x2="1420" y2="164" gradientUnits="userSpaceOnUse">
<stop stop-color="#11588A" stop-opacity="0"/>
<stop offset="0.19" stop-color="#12598B" stop-opacity="0.01"/>
<stop offset="0.32" stop-color="#165E8F" stop-opacity="0.05"/>
<stop offset="0.44" stop-color="#1D6796" stop-opacity="0.11"/>
<stop offset="0.54" stop-color="#2674A0" stop-opacity="0.2"/>
<stop offset="0.64" stop-color="#3384AD" stop-opacity="0.31"/>
<stop offset="0.74" stop-color="#4298BE" stop-opacity="0.44"/>
<stop offset="0.83" stop-color="#54AFD1" stop-opacity="0.61"/>
<stop offset="0.92" stop-color="#68CAE6" stop-opacity="0.79"/>
<stop offset="1" stop-color="#80E8FF"/>
</linearGradient>
<linearGradient id="paint11_linear_2002_253672" x1="1420.01" y1="191.011" x2="1420.01" y2="164" gradientUnits="userSpaceOnUse">
<stop stop-color="#4FD3FF" stop-opacity="0.24"/>
<stop offset="0.11" stop-color="#50D3FF" stop-opacity="0.1"/>
<stop offset="0.28" stop-color="#56D6FF" stop-opacity="0.11"/>
<stop offset="0.47" stop-color="#5FDAFF" stop-opacity="0.23"/>
<stop offset="0.7" stop-color="#6BDFFF" stop-opacity="0.41"/>
<stop offset="0.94" stop-color="#7BE6FF" stop-opacity="0.64"/>
<stop offset="1" stop-color="#80E8FF" stop-opacity="0.7"/>
</linearGradient>
<linearGradient id="paint12_linear_2002_253672" x1="133" y1="335" x2="133" y2="308" gradientUnits="userSpaceOnUse">
<stop stop-color="#11588A" stop-opacity="0"/>
<stop offset="0.19" stop-color="#12598B" stop-opacity="0.01"/>
<stop offset="0.32" stop-color="#165E8F" stop-opacity="0.05"/>
<stop offset="0.44" stop-color="#1D6796" stop-opacity="0.11"/>
<stop offset="0.54" stop-color="#2674A0" stop-opacity="0.2"/>
<stop offset="0.64" stop-color="#3384AD" stop-opacity="0.31"/>
<stop offset="0.74" stop-color="#4298BE" stop-opacity="0.44"/>
<stop offset="0.83" stop-color="#54AFD1" stop-opacity="0.61"/>
<stop offset="0.92" stop-color="#68CAE6" stop-opacity="0.79"/>
<stop offset="1" stop-color="#80E8FF"/>
</linearGradient>
<linearGradient id="paint13_linear_2002_253672" x1="133.01" y1="335.011" x2="133.01" y2="308" gradientUnits="userSpaceOnUse">
<stop stop-color="#4FD3FF" stop-opacity="0.24"/>
<stop offset="0.11" stop-color="#50D3FF" stop-opacity="0.1"/>
<stop offset="0.28" stop-color="#56D6FF" stop-opacity="0.11"/>
<stop offset="0.47" stop-color="#5FDAFF" stop-opacity="0.23"/>
<stop offset="0.7" stop-color="#6BDFFF" stop-opacity="0.41"/>
<stop offset="0.94" stop-color="#7BE6FF" stop-opacity="0.64"/>
<stop offset="1" stop-color="#80E8FF" stop-opacity="0.7"/>
</linearGradient>
<linearGradient id="paint14_linear_2002_253672" x1="1418" y1="514" x2="1418" y2="487" gradientUnits="userSpaceOnUse">
<stop stop-color="#11588A" stop-opacity="0"/>
<stop offset="0.19" stop-color="#12598B" stop-opacity="0.01"/>
<stop offset="0.32" stop-color="#165E8F" stop-opacity="0.05"/>
<stop offset="0.44" stop-color="#1D6796" stop-opacity="0.11"/>
<stop offset="0.54" stop-color="#2674A0" stop-opacity="0.2"/>
<stop offset="0.64" stop-color="#3384AD" stop-opacity="0.31"/>
<stop offset="0.74" stop-color="#4298BE" stop-opacity="0.44"/>
<stop offset="0.83" stop-color="#54AFD1" stop-opacity="0.61"/>
<stop offset="0.92" stop-color="#68CAE6" stop-opacity="0.79"/>
<stop offset="1" stop-color="#80E8FF"/>
</linearGradient>
<linearGradient id="paint15_linear_2002_253672" x1="1418.02" y1="514.011" x2="1418.02" y2="487" gradientUnits="userSpaceOnUse">
<stop stop-color="#4FD3FF" stop-opacity="0.24"/>
<stop offset="0.11" stop-color="#50D3FF" stop-opacity="0.1"/>
<stop offset="0.28" stop-color="#56D6FF" stop-opacity="0.11"/>
<stop offset="0.47" stop-color="#5FDAFF" stop-opacity="0.23"/>
<stop offset="0.7" stop-color="#6BDFFF" stop-opacity="0.41"/>
<stop offset="0.94" stop-color="#7BE6FF" stop-opacity="0.64"/>
<stop offset="1" stop-color="#80E8FF" stop-opacity="0.7"/>
</linearGradient>
<linearGradient id="paint16_linear_2002_253672" x1="972" y1="229" x2="972" y2="202" gradientUnits="userSpaceOnUse">
<stop stop-color="#11588A" stop-opacity="0"/>
<stop offset="0.19" stop-color="#12598B" stop-opacity="0.01"/>
<stop offset="0.32" stop-color="#165E8F" stop-opacity="0.05"/>
<stop offset="0.44" stop-color="#1D6796" stop-opacity="0.11"/>
<stop offset="0.54" stop-color="#2674A0" stop-opacity="0.2"/>
<stop offset="0.64" stop-color="#3384AD" stop-opacity="0.31"/>
<stop offset="0.74" stop-color="#4298BE" stop-opacity="0.44"/>
<stop offset="0.83" stop-color="#54AFD1" stop-opacity="0.61"/>
<stop offset="0.92" stop-color="#68CAE6" stop-opacity="0.79"/>
<stop offset="1" stop-color="#80E8FF"/>
</linearGradient>
<linearGradient id="paint17_linear_2002_253672" x1="972.023" y1="229.011" x2="972.023" y2="202" gradientUnits="userSpaceOnUse">
<stop stop-color="#4FD3FF" stop-opacity="0.24"/>
<stop offset="0.11" stop-color="#50D3FF" stop-opacity="0.1"/>
<stop offset="0.28" stop-color="#56D6FF" stop-opacity="0.11"/>
<stop offset="0.47" stop-color="#5FDAFF" stop-opacity="0.23"/>
<stop offset="0.7" stop-color="#6BDFFF" stop-opacity="0.41"/>
<stop offset="0.94" stop-color="#7BE6FF" stop-opacity="0.64"/>
<stop offset="1" stop-color="#80E8FF" stop-opacity="0.7"/>
</linearGradient>
<linearGradient id="paint18_linear_2002_253672" x1="313" y1="234" x2="313" y2="207" gradientUnits="userSpaceOnUse">
<stop stop-color="#11588A" stop-opacity="0"/>
<stop offset="0.19" stop-color="#12598B" stop-opacity="0.01"/>
<stop offset="0.32" stop-color="#165E8F" stop-opacity="0.05"/>
<stop offset="0.44" stop-color="#1D6796" stop-opacity="0.11"/>
<stop offset="0.54" stop-color="#2674A0" stop-opacity="0.2"/>
<stop offset="0.64" stop-color="#3384AD" stop-opacity="0.31"/>
<stop offset="0.74" stop-color="#4298BE" stop-opacity="0.44"/>
<stop offset="0.83" stop-color="#54AFD1" stop-opacity="0.61"/>
<stop offset="0.92" stop-color="#68CAE6" stop-opacity="0.79"/>
<stop offset="1" stop-color="#80E8FF"/>
</linearGradient>
<linearGradient id="paint19_linear_2002_253672" x1="313.023" y1="234.011" x2="313.023" y2="207" gradientUnits="userSpaceOnUse">
<stop stop-color="#4FD3FF" stop-opacity="0.24"/>
<stop offset="0.11" stop-color="#50D3FF" stop-opacity="0.1"/>
<stop offset="0.28" stop-color="#56D6FF" stop-opacity="0.11"/>
<stop offset="0.47" stop-color="#5FDAFF" stop-opacity="0.23"/>
<stop offset="0.7" stop-color="#6BDFFF" stop-opacity="0.41"/>
<stop offset="0.94" stop-color="#7BE6FF" stop-opacity="0.64"/>
<stop offset="1" stop-color="#80E8FF" stop-opacity="0.7"/>
</linearGradient>
<linearGradient id="paint20_linear_2002_253672" x1="612" y1="910" x2="612" y2="883" gradientUnits="userSpaceOnUse">
<stop stop-color="#11588A" stop-opacity="0"/>
<stop offset="0.19" stop-color="#12598B" stop-opacity="0.01"/>
<stop offset="0.32" stop-color="#165E8F" stop-opacity="0.05"/>
<stop offset="0.44" stop-color="#1D6796" stop-opacity="0.11"/>
<stop offset="0.54" stop-color="#2674A0" stop-opacity="0.2"/>
<stop offset="0.64" stop-color="#3384AD" stop-opacity="0.31"/>
<stop offset="0.74" stop-color="#4298BE" stop-opacity="0.44"/>
<stop offset="0.83" stop-color="#54AFD1" stop-opacity="0.61"/>
<stop offset="0.92" stop-color="#68CAE6" stop-opacity="0.79"/>
<stop offset="1" stop-color="#80E8FF"/>
</linearGradient>
<linearGradient id="paint21_linear_2002_253672" x1="612.017" y1="910.011" x2="612.017" y2="883" gradientUnits="userSpaceOnUse">
<stop stop-color="#4FD3FF" stop-opacity="0.24"/>
<stop offset="0.11" stop-color="#50D3FF" stop-opacity="0.1"/>
<stop offset="0.28" stop-color="#56D6FF" stop-opacity="0.11"/>
<stop offset="0.47" stop-color="#5FDAFF" stop-opacity="0.23"/>
<stop offset="0.7" stop-color="#6BDFFF" stop-opacity="0.41"/>
<stop offset="0.94" stop-color="#7BE6FF" stop-opacity="0.64"/>
<stop offset="1" stop-color="#80E8FF" stop-opacity="0.7"/>
</linearGradient>
</defs>
</svg>
