<svg width="20" height="20" viewBox="0 0 20 20" fill="none" xmlns="http://www.w3.org/2000/svg">
<g clip-path="url(#clip0_561_49296)">
<path d="M20.0167 16.0001V15.8001C19.9562 15.2668 19.8956 14.2001 19.351 13.2001C19.0484 12.6668 18.6247 12.2001 18.08 11.8668C17.5959 11.5335 17.0512 11.3335 16.3855 11.2668V10.5335C16.3855 10.2668 16.2644 10.0001 16.0829 9.80013C15.9013 9.60013 15.6592 9.4668 15.4171 9.4668C15.054 9.4668 14.8725 9.6668 14.7514 9.80013L12.8148 12.1335C12.5727 12.4001 12.4517 12.7335 12.4517 13.0668C12.4517 13.5335 12.6937 13.8001 12.8753 14.0001L14.8119 16.4001C14.933 16.5335 15.1145 16.7335 15.4777 16.7335C15.9618 16.7335 16.3249 16.3335 16.3249 15.8001V14.8668C17.1722 14.9335 17.7774 15.4668 18.3221 16.4001C18.5037 16.7335 18.7458 16.9335 19.0484 16.9335C19.5325 17.0001 20.0167 16.6001 20.0167 16.0001Z" fill="#00FFF0"/>
<path d="M17.8985 8.40039C18.1406 8.60039 18.5642 8.46705 18.8063 8.13372C19.0484 7.80039 18.9878 7.33372 18.6852 7.13372L9.97034 0.333719C9.90982 0.267052 9.8493 0.200386 9.72826 0.133719C9.48618 0.00038562 9.12306 0.0670523 8.88098 0.400386L0.226607 7.13372C-0.015473 7.33372 -0.0759931 7.80039 0.105567 8.13372C0.347648 8.46705 0.710768 8.60039 1.01337 8.40039L1.61857 7.93372V19.0671C1.61857 19.4671 1.92117 19.8004 2.28429 19.8004C2.64741 19.8004 2.95001 19.4671 2.95001 19.0671V6.86705L9.42566 1.86705L17.8985 8.40039Z" fill="#00FFF0"/>
<path d="M4.94751 16.4336H6.46021C6.53776 16.4336 6.5958 16.4356 6.63892 16.4395C6.63845 16.4823 6.63589 16.5397 6.62817 16.6162L6.62622 16.6416V18.333C6.62622 18.4383 6.61984 18.5103 6.61353 18.5596C6.57815 18.5631 6.5287 18.5664 6.46021 18.5664H4.94751C4.87857 18.5664 4.82864 18.5631 4.79321 18.5596C4.7869 18.5103 4.78149 18.4383 4.78149 18.333V16.666C4.78151 16.5606 4.78687 16.4887 4.79321 16.4395C4.82863 16.4359 4.8786 16.4336 4.94751 16.4336ZM8.8811 16.4336H10.3938C10.4621 16.4336 10.5118 16.4359 10.5471 16.4395C10.5535 16.4887 10.5598 16.5605 10.5598 16.666V18.333C10.5598 18.4383 10.5534 18.5103 10.5471 18.5596C10.5118 18.5631 10.4622 18.5664 10.3938 18.5664H8.8811C8.81202 18.5664 8.76224 18.5631 8.72681 18.5596C8.7205 18.5103 8.71509 18.4382 8.71509 18.333V16.666C8.7151 16.5606 8.72047 16.4887 8.72681 16.4395C8.76224 16.4359 8.81206 16.4336 8.8811 16.4336ZM4.94751 12.3662H6.46021C6.53778 12.3662 6.59579 12.3692 6.63892 12.373C6.63844 12.4159 6.63588 12.4734 6.62817 12.5498L6.62622 12.5742V14.2666C6.62622 14.372 6.61985 14.4439 6.61353 14.4932C6.57815 14.4967 6.52869 14.5 6.46021 14.5H4.94751C4.87858 14.5 4.82863 14.4967 4.79321 14.4932C4.78689 14.4439 4.7815 14.372 4.78149 14.2666V12.5996C4.7815 12.4935 4.78682 12.4214 4.79321 12.3721C4.82863 12.3685 4.87865 12.3662 4.94751 12.3662ZM8.8811 12.3662H10.3938C10.4621 12.3662 10.5118 12.3686 10.5471 12.3721C10.5535 12.4214 10.5598 12.4935 10.5598 12.5996V14.2666C10.5598 14.372 10.5535 14.4439 10.5471 14.4932C10.5118 14.4967 10.4621 14.5 10.3938 14.5H8.8811C8.81204 14.5 8.76224 14.4967 8.72681 14.4932C8.72049 14.4439 8.71509 14.3719 8.71509 14.2666V12.5996C8.71509 12.4936 8.72042 12.4214 8.72681 12.3721C8.76224 12.3685 8.81211 12.3662 8.8811 12.3662ZM4.94751 8.2998H6.46021C6.53774 8.2998 6.5958 8.3018 6.63892 8.30566C6.63847 8.34855 6.63592 8.40659 6.62817 8.4834L6.62622 8.50781V10.2002C6.62621 10.305 6.6198 10.3766 6.61353 10.4258C6.57814 10.4293 6.52873 10.4336 6.46021 10.4336H4.94751C4.87854 10.4336 4.82864 10.4293 4.79321 10.4258C4.78694 10.3766 4.7815 10.3049 4.78149 10.2002V8.5332C4.78149 8.42722 4.78683 8.35497 4.79321 8.30566C4.82863 8.30211 4.87863 8.2998 4.94751 8.2998Z" stroke="#00FFF0"/>
</g>
<defs>
<clipPath id="clip0_561_49296">
<rect width="20" height="20" fill="white"/>
</clipPath>
</defs>
</svg>
