<svg width="111" height="110" viewBox="0 0 111 110" fill="none" xmlns="http://www.w3.org/2000/svg">
<path opacity="0.05" d="M55.4479 109.972C85.8045 109.972 110.413 85.3611 110.413 55.0021C110.413 24.6431 85.8045 0.0322266 55.4479 0.0322266C25.0913 0.0322266 0.482422 24.6431 0.482422 55.0021C0.482422 85.3611 25.0913 109.972 55.4479 109.972Z" fill="#62DBED"/>
<path d="M55.4479 109.972C85.8045 109.972 110.413 85.3611 110.413 55.0021C110.413 24.6431 85.8045 0.0322266 55.4479 0.0322266C25.0913 0.0322266 0.482422 24.6431 0.482422 55.0021C0.482422 85.3611 25.0913 109.972 55.4479 109.972Z" fill="#79442D" fill-opacity="0.2"/>
<path d="M55.4478 109.971H54.4776C53.8427 109.971 52.9154 110.036 51.7312 109.971L49.7694 109.872L47.4723 109.65C45.631 109.438 43.8023 109.128 41.9936 108.723C40.9949 108.502 39.9748 108.209 38.9118 107.931C37.8489 107.653 36.7717 107.282 35.6731 106.861C33.364 106.008 31.1143 105.002 28.9389 103.85C26.6209 102.602 24.3901 101.198 22.2617 99.6481C20.086 98.0188 18.0198 96.2481 16.0767 94.3473C14.1776 92.4007 12.4048 90.3347 10.7692 88.1619C9.2235 86.0321 7.82215 83.8012 6.5746 81.4841C5.42661 79.3106 4.43027 77.0603 3.59269 74.7494C3.16467 73.6578 2.87932 72.5591 2.5155 71.5104C2.15168 70.4616 1.95193 69.4272 1.73079 68.4284C1.50964 67.4296 1.2885 66.4807 1.16009 65.5746C1.03168 64.6686 0.87474 63.7911 0.796269 62.9635C0.717798 62.1359 0.646459 61.3725 0.575122 60.6591C0.503785 59.9457 0.510917 59.2964 0.482383 58.7043C0.396778 57.52 0.482383 56.564 0.482383 55.9576C0.482383 55.3512 0.482383 54.9873 0.482383 54.9873L0.546586 55.9504C0.603656 56.5854 0.617923 57.5129 0.760598 58.6829C0.824802 59.2679 0.889006 59.9171 0.967477 60.6234C1.04595 61.3297 1.19576 62.0503 1.32416 62.885C1.61665 64.4973 2.03754 66.3023 2.52263 68.2429C2.77945 69.2131 3.11473 70.2048 3.42862 71.2393C3.7425 72.2737 4.14199 73.3225 4.58428 74.3784C5.48712 76.6098 6.51849 78.787 7.67319 80.8991C8.94512 83.1324 10.3482 85.2883 11.875 87.3557C13.4825 89.4634 15.2244 91.4651 17.0897 93.3485C18.9713 95.2157 20.9731 96.9578 23.0821 98.5637C25.1377 100.089 27.2816 101.493 29.5024 102.766C31.6126 103.919 33.7872 104.951 36.0155 105.855C37.0713 106.304 38.1557 106.625 39.1544 107.011C40.1531 107.396 41.1804 107.66 42.1505 107.917C44.0981 108.43 45.8958 108.823 47.508 109.115L49.7765 109.472L51.7098 109.679C52.8797 109.822 53.8499 109.836 54.442 109.893L55.4478 109.971Z" fill="url(#paint0_linear_561_50662)"/>
<path d="M55.4482 0.0317081H56.4184C57.0533 0.0317081 57.9807 -0.0396351 59.1649 0.0317081L61.1267 0.124452L63.4238 0.345614C65.2651 0.56085 67.0939 0.872817 68.9025 1.28021C69.9012 1.50138 70.9213 1.79388 71.9842 2.06499C73.0472 2.33609 74.1244 2.7142 75.223 3.14226C77.531 3.97559 79.7787 4.96724 81.9501 6.11014C84.2679 7.35617 86.4987 8.7577 88.6273 10.3051C90.8031 11.9369 92.8692 13.71 94.8122 15.613C96.7148 17.5565 98.4878 19.6228 100.12 21.7985C101.667 23.9248 103.068 26.1534 104.314 28.4691C105.462 30.645 106.459 32.8977 107.296 35.211C107.724 36.3025 108.01 37.4012 108.373 38.4429C108.737 39.4845 108.937 40.5332 109.158 41.5249C109.379 42.5165 109.6 43.4725 109.729 44.3786C109.857 45.2847 110.014 46.1622 110.093 46.9826C110.171 47.8031 110.242 48.5736 110.314 49.287C110.385 50.0004 110.378 50.6568 110.407 51.2489C110.492 52.4261 110.407 53.3892 110.407 53.9956C110.407 54.6021 110.407 54.9659 110.407 54.9659C110.407 54.9659 110.407 54.6235 110.342 53.9956C110.278 53.3678 110.271 52.4404 110.128 51.2632C110.064 50.6782 110 50.0361 109.921 49.3298C109.843 48.6235 109.693 47.9029 109.565 47.0611C109.272 45.4487 108.851 43.6438 108.366 41.7032C108.11 40.733 107.774 39.7413 107.46 38.7068C107.146 37.6723 106.747 36.6236 106.305 35.5677C105.4 33.3392 104.369 31.1645 103.216 29.0541C101.945 26.8198 100.542 24.6638 99.014 22.5975C97.4087 20.4878 95.6692 18.4837 93.8064 16.5976C91.9225 14.7323 89.9184 12.9925 87.8069 11.3895C85.7414 9.86015 83.5855 8.45689 81.3508 7.18742C79.2436 6.02831 77.0686 4.99673 74.8377 4.09826C73.7819 3.64167 72.6976 3.32063 71.6989 2.93537C70.7002 2.55012 69.6729 2.29328 68.7027 2.03645C66.7552 1.51564 64.9575 1.12326 63.3453 0.837883L61.0768 0.481168L59.1435 0.274272C57.9736 0.124452 57.0034 0.110181 56.4113 0.0602405L55.4482 0.0317081Z" fill="url(#paint1_linear_561_50662)"/>
<defs>
<linearGradient id="paint0_linear_561_50662" x1="-0.230991" y1="82.5043" x2="55.4478" y2="82.5043" gradientUnits="userSpaceOnUse">
<stop stop-color="#FFBC5B" stop-opacity="0"/>
<stop offset="1" stop-color="#FFBC5B"/>
</linearGradient>
<linearGradient id="paint1_linear_561_50662" x1="55.4482" y1="27.4988" x2="111.127" y2="27.4988" gradientUnits="userSpaceOnUse">
<stop stop-color="#FFBC5B" stop-opacity="0"/>
<stop offset="1" stop-color="#FFBC5B"/>
</linearGradient>
</defs>
</svg>
