<svg width="480" height="314" viewBox="0 0 480 314" fill="none" xmlns="http://www.w3.org/2000/svg">
<g clip-path="url(#clip0_320_45093)">
<path d="M263.958 1L303.693 30.0576C303.865 30.1827 304.071 30.25 304.283 30.25H479V35H10.4531L1 28.0068V1H263.958Z" fill="url(#paint0_linear_320_45093)"/>
<path d="M263.958 1L303.693 30.0576C303.865 30.1827 304.071 30.25 304.283 30.25H479V35H10.4531L1 28.0068V1H263.958Z" fill="url(#paint1_radial_320_45093)"/>
<path d="M263.958 1L303.693 30.0576C303.865 30.1827 304.071 30.25 304.283 30.25H479V35H10.4531L1 28.0068V1H263.958Z" fill="url(#paint2_radial_320_45093)"/>
<path d="M263.958 1L303.693 30.0576C303.865 30.1827 304.071 30.25 304.283 30.25H479V35H10.4531L1 28.0068V1H263.958Z" stroke="url(#paint3_linear_320_45093)" stroke-width="2" stroke-linejoin="round"/>
<g filter="url(#filter0_d_320_45093)">
<path fill-rule="evenodd" clip-rule="evenodd" d="M0 28.3636L0 24.75L15 36L10.1818 36L0 28.3636Z" fill="url(#paint4_linear_320_45093)"/>
</g>
<path d="M462.913 22.8965H305.957L281.997 4.92676H270" stroke="url(#paint5_linear_320_45093)"/>
<rect x="477" y="21.75" width="3" height="2.25" fill="white"/>
<rect x="470" y="21.75" width="3" height="2.25" fill="#68BEFE"/>
<rect x="463" y="21.75" width="3" height="2.25" fill="#11E6FF"/>
<path d="M0 19.5L22 36H357.954" stroke="url(#paint6_linear_320_45093)"/>
</g>
<g clip-path="url(#clip1_320_45093)">
<rect y="34" width="480" height="280" fill="url(#paint7_linear_320_45093)"/>
<rect y="34" width="480" height="280" fill="url(#paint8_radial_320_45093)"/>
<rect y="34" width="480" height="280" fill="url(#paint9_radial_320_45093)"/>
<path d="M480 302.693L468.555 313.125H58.5601" stroke="url(#paint10_linear_320_45093)"/>
<path opacity="0.2" d="M15.532 314H0L1.86368 312.25H17.2819L15.532 314Z" fill="#00FFE0"/>
<path opacity="0.4" d="M34.732 314H19.2L21.0636 312.25H36.4818L34.732 314Z" fill="#00FFE0"/>
<path d="M52.972 314H37.4399L39.3036 312.25H54.7218L52.972 314Z" fill="#00FFE0"/>
</g>
<defs>
<filter id="filter0_d_320_45093" x="-4" y="20.75" width="23" height="19.25" filterUnits="userSpaceOnUse" color-interpolation-filters="sRGB">
<feFlood flood-opacity="0" result="BackgroundImageFix"/>
<feColorMatrix in="SourceAlpha" type="matrix" values="0 0 0 0 0 0 0 0 0 0 0 0 0 0 0 0 0 0 127 0" result="hardAlpha"/>
<feOffset/>
<feGaussianBlur stdDeviation="2"/>
<feColorMatrix type="matrix" values="0 0 0 0 0.264311 0 0 0 0 0.592178 0 0 0 0 1 0 0 0 0.5 0"/>
<feBlend mode="normal" in2="BackgroundImageFix" result="effect1_dropShadow_320_45093"/>
<feBlend mode="normal" in="SourceGraphic" in2="effect1_dropShadow_320_45093" result="shape"/>
</filter>
<linearGradient id="paint0_linear_320_45093" x1="480" y1="4.69687" x2="-0.686022" y2="4.69687" gradientUnits="userSpaceOnUse">
<stop stop-color="#1287EA" stop-opacity="0.01"/>
<stop offset="1" stop-color="#23B9E5" stop-opacity="0.1"/>
</linearGradient>
<radialGradient id="paint1_radial_320_45093" cx="0" cy="0" r="1" gradientUnits="userSpaceOnUse" gradientTransform="rotate(7.52603) scale(297.913 39.436)">
<stop stop-color="#00F0FF" stop-opacity="0.3"/>
<stop offset="1" stop-color="#00F0FF" stop-opacity="0.01"/>
</radialGradient>
<radialGradient id="paint2_radial_320_45093" cx="0" cy="0" r="1" gradientUnits="userSpaceOnUse" gradientTransform="translate(1.8389 0.482905) rotate(14.714) scale(95.8056 39.011)">
<stop stop-color="#00FFFF" stop-opacity="0.553528"/>
<stop offset="1" stop-color="#00E0FF" stop-opacity="0.01"/>
</radialGradient>
<linearGradient id="paint3_linear_320_45093" x1="480" y1="36" x2="480" y2="0" gradientUnits="userSpaceOnUse">
<stop stop-color="#13BCE1" stop-opacity="0.01"/>
<stop offset="1" stop-color="#10E4F2"/>
</linearGradient>
<linearGradient id="paint4_linear_320_45093" x1="0" y1="36" x2="15" y2="36" gradientUnits="userSpaceOnUse">
<stop stop-color="#00F7FF"/>
<stop offset="1" stop-color="#2DEAFF"/>
</linearGradient>
<linearGradient id="paint5_linear_320_45093" x1="462.913" y1="4.92676" x2="270" y2="4.92676" gradientUnits="userSpaceOnUse">
<stop stop-color="#27F4FF"/>
<stop offset="1" stop-color="#72D5FF" stop-opacity="0"/>
</linearGradient>
<linearGradient id="paint6_linear_320_45093" x1="357.954" y1="19.5" x2="0" y2="19.5" gradientUnits="userSpaceOnUse">
<stop stop-color="#22B6FF" stop-opacity="0.01"/>
<stop offset="1" stop-color="#1DEFFF"/>
</linearGradient>
<linearGradient id="paint7_linear_320_45093" x1="0" y1="34" x2="0" y2="314" gradientUnits="userSpaceOnUse">
<stop stop-color="#073943" stop-opacity="0.1"/>
<stop offset="1" stop-color="#0D5959" stop-opacity="0.1"/>
</linearGradient>
<radialGradient id="paint8_radial_320_45093" cx="0" cy="0" r="1" gradientUnits="userSpaceOnUse" gradientTransform="translate(240 314) rotate(90) scale(44.0217 394.68)">
<stop stop-color="#27F2FF" stop-opacity="0.1"/>
<stop offset="1" stop-color="#27E5FF" stop-opacity="0.01"/>
</radialGradient>
<radialGradient id="paint9_radial_320_45093" cx="0" cy="0" r="1" gradientUnits="userSpaceOnUse" gradientTransform="translate(240 314) rotate(90) scale(9.84183 228.918)">
<stop stop-color="#27D8FF" stop-opacity="0.2"/>
<stop offset="1" stop-color="#27D8FF" stop-opacity="0.01"/>
</radialGradient>
<linearGradient id="paint10_linear_320_45093" x1="480" y1="302.693" x2="58.5601" y2="302.693" gradientUnits="userSpaceOnUse">
<stop stop-color="#27F2FF" stop-opacity="0.6"/>
<stop offset="1" stop-color="#40D1F1" stop-opacity="0.5"/>
</linearGradient>
<clipPath id="clip0_320_45093">
<rect width="480" height="36" fill="white"/>
</clipPath>
<clipPath id="clip1_320_45093">
<rect width="480" height="280" fill="white" transform="translate(0 34)"/>
</clipPath>
</defs>
</svg>
